<?xml version="1.0" encoding="utf-8"?>
<svg xmlns="http://www.w3.org/2000/svg" xmlns:xlink="http://www.w3.org/1999/xlink" width="1400" height="800" viewBox="0 0 5600 3200">
<defs>
  <clipPath id="clip810">
    <rect x="0" y="0" width="5600" height="3200"/>
  </clipPath>
</defs>
<path clip-path="url(#clip810)" d="M0 3200 L5600 3200 L5600 0 L0 0  Z" fill="#ffffff" fill-rule="evenodd" fill-opacity="1"/>
<defs>
  <clipPath id="clip811">
    <rect x="1120" y="0" width="3921" height="3200"/>
  </clipPath>
</defs>
<path clip-path="url(#clip810)" d="M408.591 2719.86 L5411.02 2719.86 L5411.02 437.398 L408.591 437.398  Z" fill="#ffffff" fill-rule="evenodd" fill-opacity="1"/>
<defs>
  <clipPath id="clip812">
    <rect x="408" y="437" width="5003" height="2283"/>
  </clipPath>
</defs>
<polyline clip-path="url(#clip812)" style="stroke:#000000; stroke-linecap:round; stroke-linejoin:round; stroke-width:2; stroke-opacity:0.3; fill:none" points="1298.03,2719.86 1298.03,437.398 "/>
<polyline clip-path="url(#clip812)" style="stroke:#000000; stroke-linecap:round; stroke-linejoin:round; stroke-width:2; stroke-opacity:0.3; fill:none" points="2909.81,2719.86 2909.81,437.398 "/>
<polyline clip-path="url(#clip812)" style="stroke:#000000; stroke-linecap:round; stroke-linejoin:round; stroke-width:2; stroke-opacity:0.3; fill:none" points="4521.58,2719.86 4521.58,437.398 "/>
<polyline clip-path="url(#clip812)" style="stroke:#000000; stroke-linecap:round; stroke-linejoin:round; stroke-width:2; stroke-opacity:0.3; fill:none" points="1298.03,2719.86 1298.03,437.398 "/>
<polyline clip-path="url(#clip812)" style="stroke:#000000; stroke-linecap:round; stroke-linejoin:round; stroke-width:2; stroke-opacity:0.3; fill:none" points="2909.81,2719.86 2909.81,437.398 "/>
<polyline clip-path="url(#clip812)" style="stroke:#000000; stroke-linecap:round; stroke-linejoin:round; stroke-width:2; stroke-opacity:0.3; fill:none" points="4521.58,2719.86 4521.58,437.398 "/>
<polyline clip-path="url(#clip812)" style="stroke:#000000; stroke-linecap:round; stroke-linejoin:round; stroke-width:2; stroke-opacity:0.3; fill:none" points="408.591,2719.86 5411.02,2719.86 "/>
<polyline clip-path="url(#clip812)" style="stroke:#000000; stroke-linecap:round; stroke-linejoin:round; stroke-width:2; stroke-opacity:0.3; fill:none" points="408.591,2263.37 5411.02,2263.37 "/>
<polyline clip-path="url(#clip812)" style="stroke:#000000; stroke-linecap:round; stroke-linejoin:round; stroke-width:2; stroke-opacity:0.3; fill:none" points="408.591,1806.87 5411.02,1806.87 "/>
<polyline clip-path="url(#clip812)" style="stroke:#000000; stroke-linecap:round; stroke-linejoin:round; stroke-width:2; stroke-opacity:0.3; fill:none" points="408.591,1350.38 5411.02,1350.38 "/>
<polyline clip-path="url(#clip812)" style="stroke:#000000; stroke-linecap:round; stroke-linejoin:round; stroke-width:2; stroke-opacity:0.3; fill:none" points="408.591,893.89 5411.02,893.89 "/>
<polyline clip-path="url(#clip812)" style="stroke:#000000; stroke-linecap:round; stroke-linejoin:round; stroke-width:2; stroke-opacity:0.3; fill:none" points="408.591,437.398 5411.02,437.398 "/>
<polyline clip-path="url(#clip812)" style="stroke:#000000; stroke-linecap:round; stroke-linejoin:round; stroke-width:2; stroke-opacity:0.3; fill:none" points="408.591,2719.86 5411.02,2719.86 "/>
<polyline clip-path="url(#clip812)" style="stroke:#000000; stroke-linecap:round; stroke-linejoin:round; stroke-width:2; stroke-opacity:0.3; fill:none" points="408.591,2263.37 5411.02,2263.37 "/>
<polyline clip-path="url(#clip812)" style="stroke:#000000; stroke-linecap:round; stroke-linejoin:round; stroke-width:2; stroke-opacity:0.3; fill:none" points="408.591,1806.87 5411.02,1806.87 "/>
<polyline clip-path="url(#clip812)" style="stroke:#000000; stroke-linecap:round; stroke-linejoin:round; stroke-width:2; stroke-opacity:0.3; fill:none" points="408.591,1350.38 5411.02,1350.38 "/>
<polyline clip-path="url(#clip812)" style="stroke:#000000; stroke-linecap:round; stroke-linejoin:round; stroke-width:2; stroke-opacity:0.3; fill:none" points="408.591,893.89 5411.02,893.89 "/>
<polyline clip-path="url(#clip812)" style="stroke:#000000; stroke-linecap:round; stroke-linejoin:round; stroke-width:2; stroke-opacity:0.3; fill:none" points="408.591,437.398 5411.02,437.398 "/>
<polyline clip-path="url(#clip810)" style="stroke:#000000; stroke-linecap:round; stroke-linejoin:round; stroke-width:4; stroke-opacity:1; fill:none" points="408.591,2719.86 5411.02,2719.86 "/>
<polyline clip-path="url(#clip810)" style="stroke:#000000; stroke-linecap:round; stroke-linejoin:round; stroke-width:4; stroke-opacity:1; fill:none" points="408.591,437.398 5411.02,437.398 "/>
<polyline clip-path="url(#clip810)" style="stroke:#000000; stroke-linecap:round; stroke-linejoin:round; stroke-width:4; stroke-opacity:1; fill:none" points="1298.03,2719.86 1298.03,2702.96 "/>
<polyline clip-path="url(#clip810)" style="stroke:#000000; stroke-linecap:round; stroke-linejoin:round; stroke-width:4; stroke-opacity:1; fill:none" points="2909.81,2719.86 2909.81,2702.96 "/>
<polyline clip-path="url(#clip810)" style="stroke:#000000; stroke-linecap:round; stroke-linejoin:round; stroke-width:4; stroke-opacity:1; fill:none" points="4521.58,2719.86 4521.58,2702.96 "/>
<polyline clip-path="url(#clip810)" style="stroke:#000000; stroke-linecap:round; stroke-linejoin:round; stroke-width:4; stroke-opacity:1; fill:none" points="1298.03,437.398 1298.03,454.301 "/>
<polyline clip-path="url(#clip810)" style="stroke:#000000; stroke-linecap:round; stroke-linejoin:round; stroke-width:4; stroke-opacity:1; fill:none" points="2909.81,437.398 2909.81,454.301 "/>
<polyline clip-path="url(#clip810)" style="stroke:#000000; stroke-linecap:round; stroke-linejoin:round; stroke-width:4; stroke-opacity:1; fill:none" points="4521.58,437.398 4521.58,454.301 "/>
<g clip-path="url(#clip810)">
<text style="fill:#000000; fill-opacity:1; font-family:Century Gothic,CenturyGothic,AppleGothic,sans-serif; font-size:58px; text-anchor:middle;" transform="rotate(0, 1298.03, 2816.87)" x="1298.03" y="2816.87">spider-test</text>
</g>
<g clip-path="url(#clip810)">
<text style="fill:#000000; fill-opacity:1; font-family:Century Gothic,CenturyGothic,AppleGothic,sans-serif; font-size:58px; text-anchor:middle;" transform="rotate(0, 2909.81, 2816.87)" x="2909.81" y="2816.87">spider-dev</text>
</g>
<g clip-path="url(#clip810)">
<text style="fill:#000000; fill-opacity:1; font-family:Century Gothic,CenturyGothic,AppleGothic,sans-serif; font-size:58px; text-anchor:middle;" transform="rotate(0, 4521.58, 2816.87)" x="4521.58" y="2816.87">bird-dev</text>
</g>
<g clip-path="url(#clip810)">
<text style="fill:#000000; fill-opacity:1; font-family:Century Gothic,CenturyGothic,AppleGothic,sans-serif; font-size:58px; text-anchor:middle;" transform="rotate(0, 2909.81, 2918.09)" x="2909.81" y="2918.09">Benchmark</text>
</g>
<polyline clip-path="url(#clip810)" style="stroke:#000000; stroke-linecap:round; stroke-linejoin:round; stroke-width:4; stroke-opacity:1; fill:none" points="408.591,2719.86 408.591,437.398 "/>
<polyline clip-path="url(#clip810)" style="stroke:#000000; stroke-linecap:round; stroke-linejoin:round; stroke-width:4; stroke-opacity:1; fill:none" points="5411.02,2719.86 5411.02,437.398 "/>
<polyline clip-path="url(#clip810)" style="stroke:#000000; stroke-linecap:round; stroke-linejoin:round; stroke-width:4; stroke-opacity:1; fill:none" points="408.591,2719.86 427.489,2719.86 "/>
<polyline clip-path="url(#clip810)" style="stroke:#000000; stroke-linecap:round; stroke-linejoin:round; stroke-width:4; stroke-opacity:1; fill:none" points="408.591,2263.37 427.489,2263.37 "/>
<polyline clip-path="url(#clip810)" style="stroke:#000000; stroke-linecap:round; stroke-linejoin:round; stroke-width:4; stroke-opacity:1; fill:none" points="408.591,1806.87 427.489,1806.87 "/>
<polyline clip-path="url(#clip810)" style="stroke:#000000; stroke-linecap:round; stroke-linejoin:round; stroke-width:4; stroke-opacity:1; fill:none" points="408.591,1350.38 427.489,1350.38 "/>
<polyline clip-path="url(#clip810)" style="stroke:#000000; stroke-linecap:round; stroke-linejoin:round; stroke-width:4; stroke-opacity:1; fill:none" points="408.591,893.89 427.489,893.89 "/>
<polyline clip-path="url(#clip810)" style="stroke:#000000; stroke-linecap:round; stroke-linejoin:round; stroke-width:4; stroke-opacity:1; fill:none" points="408.591,437.398 427.489,437.398 "/>
<polyline clip-path="url(#clip810)" style="stroke:#000000; stroke-linecap:round; stroke-linejoin:round; stroke-width:4; stroke-opacity:1; fill:none" points="5411.02,2719.86 5392.13,2719.86 "/>
<polyline clip-path="url(#clip810)" style="stroke:#000000; stroke-linecap:round; stroke-linejoin:round; stroke-width:4; stroke-opacity:1; fill:none" points="5411.02,2263.37 5392.13,2263.37 "/>
<polyline clip-path="url(#clip810)" style="stroke:#000000; stroke-linecap:round; stroke-linejoin:round; stroke-width:4; stroke-opacity:1; fill:none" points="5411.02,1806.87 5392.13,1806.87 "/>
<polyline clip-path="url(#clip810)" style="stroke:#000000; stroke-linecap:round; stroke-linejoin:round; stroke-width:4; stroke-opacity:1; fill:none" points="5411.02,1350.38 5392.13,1350.38 "/>
<polyline clip-path="url(#clip810)" style="stroke:#000000; stroke-linecap:round; stroke-linejoin:round; stroke-width:4; stroke-opacity:1; fill:none" points="5411.02,893.89 5392.13,893.89 "/>
<polyline clip-path="url(#clip810)" style="stroke:#000000; stroke-linecap:round; stroke-linejoin:round; stroke-width:4; stroke-opacity:1; fill:none" points="5411.02,437.398 5392.13,437.398 "/>
<g clip-path="url(#clip810)">
<text style="fill:#000000; fill-opacity:1; font-family:Century Gothic,CenturyGothic,AppleGothic,sans-serif; font-size:58px; text-anchor:middle;" transform="rotate(0, 308.42, 2741.36)" x="308.42" y="2741.36">0</text>
</g>
<g clip-path="url(#clip810)">
<text style="fill:#000000; fill-opacity:1; font-family:Century Gothic,CenturyGothic,AppleGothic,sans-serif; font-size:58px; text-anchor:middle;" transform="rotate(0, 292.249, 2284.87)" x="292.249" y="2284.87">20</text>
</g>
<g clip-path="url(#clip810)">
<text style="fill:#000000; fill-opacity:1; font-family:Century Gothic,CenturyGothic,AppleGothic,sans-serif; font-size:58px; text-anchor:middle;" transform="rotate(0, 292.249, 1828.37)" x="292.249" y="1828.37">40</text>
</g>
<g clip-path="url(#clip810)">
<text style="fill:#000000; fill-opacity:1; font-family:Century Gothic,CenturyGothic,AppleGothic,sans-serif; font-size:58px; text-anchor:middle;" transform="rotate(0, 292.249, 1371.88)" x="292.249" y="1371.88">60</text>
</g>
<g clip-path="url(#clip810)">
<text style="fill:#000000; fill-opacity:1; font-family:Century Gothic,CenturyGothic,AppleGothic,sans-serif; font-size:58px; text-anchor:middle;" transform="rotate(0, 292.249, 915.39)" x="292.249" y="915.39">80</text>
</g>
<g clip-path="url(#clip810)">
<text style="fill:#000000; fill-opacity:1; font-family:Century Gothic,CenturyGothic,AppleGothic,sans-serif; font-size:58px; text-anchor:middle;" transform="rotate(0, 276.079, 458.898)" x="276.079" y="458.898">100</text>
</g>
<g clip-path="url(#clip810)">
<text style="fill:#000000; fill-opacity:1; font-family:Century Gothic,CenturyGothic,AppleGothic,sans-serif; font-size:58px; text-anchor:middle;" transform="rotate(-90, 133.752, 1578.63)" x="133.752" y="1578.63">Score (%)</text>
</g>
<g clip-path="url(#clip810)">
<text style="fill:#000000; fill-opacity:1; font-family:Century Gothic,CenturyGothic,AppleGothic,sans-serif; font-size:70px; text-anchor:middle;" transform="rotate(0, 2909.81, 62.4)" x="2909.81" y="62.4">Execution Accuracy (%) Across Benchmarks</text>
</g>
<path clip-path="url(#clip812)" d="M653.323 916.715 L653.323 2719.86 L868.226 2719.86 L868.226 916.715 L653.323 916.715 L653.323 916.715  Z" fill="#360e24" fill-rule="evenodd" fill-opacity="1"/>
<polyline clip-path="url(#clip812)" style="stroke:#000000; stroke-linecap:round; stroke-linejoin:round; stroke-width:8; stroke-opacity:1; fill:none" points="653.323,916.715 653.323,2719.86 868.226,2719.86 868.226,916.715 653.323,916.715 "/>
<path clip-path="url(#clip812)" d="M2265.1 916.715 L2265.1 2719.86 L2480 2719.86 L2480 916.715 L2265.1 916.715 L2265.1 916.715  Z" fill="#360e24" fill-rule="evenodd" fill-opacity="1"/>
<polyline clip-path="url(#clip812)" style="stroke:#000000; stroke-linecap:round; stroke-linejoin:round; stroke-width:8; stroke-opacity:1; fill:none" points="2265.1,916.715 2265.1,2719.86 2480,2719.86 2480,916.715 2265.1,916.715 "/>
<path clip-path="url(#clip812)" d="M3876.87 1852.3 L3876.87 2719.86 L4091.78 2719.86 L4091.78 1852.3 L3876.87 1852.3 L3876.87 1852.3  Z" fill="#360e24" fill-rule="evenodd" fill-opacity="1"/>
<polyline clip-path="url(#clip812)" style="stroke:#000000; stroke-linecap:round; stroke-linejoin:round; stroke-width:8; stroke-opacity:1; fill:none" points="3876.87,1852.3 3876.87,2719.86 4091.78,2719.86 4091.78,1852.3 3876.87,1852.3 "/>
<circle clip-path="url(#clip812)" style="fill:#360e24; stroke:none; fill-opacity:0" cx="760.775" cy="916.715" r="2"/>
<circle clip-path="url(#clip812)" style="fill:#360e24; stroke:none; fill-opacity:0" cx="2372.55" cy="916.715" r="2"/>
<circle clip-path="url(#clip812)" style="fill:#360e24; stroke:none; fill-opacity:0" cx="3984.32" cy="1852.3" r="2"/>
<path clip-path="url(#clip812)" d="M868.226 960.538 L868.226 2719.86 L1083.13 2719.86 L1083.13 960.538 L868.226 960.538 L868.226 960.538  Z" fill="#511443" fill-rule="evenodd" fill-opacity="1"/>
<polyline clip-path="url(#clip812)" style="stroke:#000000; stroke-linecap:round; stroke-linejoin:round; stroke-width:8; stroke-opacity:1; fill:none" points="868.226,960.538 868.226,2719.86 1083.13,2719.86 1083.13,960.538 868.226,960.538 "/>
<path clip-path="url(#clip812)" d="M2480 949.582 L2480 2719.86 L2694.9 2719.86 L2694.9 949.582 L2480 949.582 L2480 949.582  Z" fill="#511443" fill-rule="evenodd" fill-opacity="1"/>
<polyline clip-path="url(#clip812)" style="stroke:#000000; stroke-linecap:round; stroke-linejoin:round; stroke-width:8; stroke-opacity:1; fill:none" points="2480,949.582 2480,2719.86 2694.9,2719.86 2694.9,949.582 2480,949.582 "/>
<path clip-path="url(#clip812)" d="M4091.78 1876.26 L4091.78 2719.86 L4306.68 2719.86 L4306.68 1876.26 L4091.78 1876.26 L4091.78 1876.26  Z" fill="#511443" fill-rule="evenodd" fill-opacity="1"/>
<polyline clip-path="url(#clip812)" style="stroke:#000000; stroke-linecap:round; stroke-linejoin:round; stroke-width:8; stroke-opacity:1; fill:none" points="4091.78,1876.26 4091.78,2719.86 4306.68,2719.86 4306.68,1876.26 4091.78,1876.26 "/>
<circle clip-path="url(#clip812)" style="fill:#511443; stroke:none; fill-opacity:0" cx="975.678" cy="960.538" r="2"/>
<circle clip-path="url(#clip812)" style="fill:#511443; stroke:none; fill-opacity:0" cx="2587.45" cy="949.582" r="2"/>
<circle clip-path="url(#clip812)" style="fill:#511443; stroke:none; fill-opacity:0" cx="4199.23" cy="1876.26" r="2"/>
<path clip-path="url(#clip812)" d="M1083.13 928.127 L1083.13 2719.86 L1298.03 2719.86 L1298.03 928.127 L1083.13 928.127 L1083.13 928.127  Z" fill="#642068" fill-rule="evenodd" fill-opacity="1"/>
<polyline clip-path="url(#clip812)" style="stroke:#000000; stroke-linecap:round; stroke-linejoin:round; stroke-width:8; stroke-opacity:1; fill:none" points="1083.13,928.127 1083.13,2719.86 1298.03,2719.86 1298.03,928.127 1083.13,928.127 "/>
<path clip-path="url(#clip812)" d="M2694.9 921.736 L2694.9 2719.86 L2909.81 2719.86 L2909.81 921.736 L2694.9 921.736 L2694.9 921.736  Z" fill="#642068" fill-rule="evenodd" fill-opacity="1"/>
<polyline clip-path="url(#clip812)" style="stroke:#000000; stroke-linecap:round; stroke-linejoin:round; stroke-width:8; stroke-opacity:1; fill:none" points="2694.9,921.736 2694.9,2719.86 2909.81,2719.86 2909.81,921.736 2694.9,921.736 "/>
<path clip-path="url(#clip812)" d="M4306.68 1871.7 L4306.68 2719.86 L4521.58 2719.86 L4521.58 1871.7 L4306.68 1871.7 L4306.68 1871.7  Z" fill="#642068" fill-rule="evenodd" fill-opacity="1"/>
<polyline clip-path="url(#clip812)" style="stroke:#000000; stroke-linecap:round; stroke-linejoin:round; stroke-width:8; stroke-opacity:1; fill:none" points="4306.68,1871.7 4306.68,2719.86 4521.58,2719.86 4521.58,1871.7 4306.68,1871.7 "/>
<circle clip-path="url(#clip812)" style="fill:#642068; stroke:none; fill-opacity:0" cx="1190.58" cy="928.127" r="2"/>
<circle clip-path="url(#clip812)" style="fill:#642068; stroke:none; fill-opacity:0" cx="2802.36" cy="921.736" r="2"/>
<circle clip-path="url(#clip812)" style="fill:#642068; stroke:none; fill-opacity:0" cx="4414.13" cy="1871.7" r="2"/>
<path clip-path="url(#clip812)" d="M1298.03 891.608 L1298.03 2719.86 L1512.94 2719.86 L1512.94 891.608 L1298.03 891.608 L1298.03 891.608  Z" fill="#71338d" fill-rule="evenodd" fill-opacity="1"/>
<polyline clip-path="url(#clip812)" style="stroke:#000000; stroke-linecap:round; stroke-linejoin:round; stroke-width:8; stroke-opacity:1; fill:none" points="1298.03,891.608 1298.03,2719.86 1512.94,2719.86 1512.94,891.608 1298.03,891.608 "/>
<path clip-path="url(#clip812)" d="M2909.81 973.548 L2909.81 2719.86 L3124.71 2719.86 L3124.71 973.548 L2909.81 973.548 L2909.81 973.548  Z" fill="#71338d" fill-rule="evenodd" fill-opacity="1"/>
<polyline clip-path="url(#clip812)" style="stroke:#000000; stroke-linecap:round; stroke-linejoin:round; stroke-width:8; stroke-opacity:1; fill:none" points="2909.81,973.548 2909.81,2719.86 3124.71,2719.86 3124.71,973.548 2909.81,973.548 "/>
<path clip-path="url(#clip812)" d="M4521.58 1490.07 L4521.58 2719.86 L4736.49 2719.86 L4736.49 1490.07 L4521.58 1490.07 L4521.58 1490.07  Z" fill="#71338d" fill-rule="evenodd" fill-opacity="1"/>
<polyline clip-path="url(#clip812)" style="stroke:#000000; stroke-linecap:round; stroke-linejoin:round; stroke-width:8; stroke-opacity:1; fill:none" points="4521.58,1490.07 4521.58,2719.86 4736.49,2719.86 4736.49,1490.07 4521.58,1490.07 "/>
<circle clip-path="url(#clip812)" style="fill:#71338d; stroke:none; fill-opacity:0" cx="1405.48" cy="891.608" r="2"/>
<circle clip-path="url(#clip812)" style="fill:#71338d; stroke:none; fill-opacity:0" cx="3017.26" cy="973.548" r="2"/>
<circle clip-path="url(#clip812)" style="fill:#71338d; stroke:none; fill-opacity:0" cx="4629.03" cy="1490.07" r="2"/>
<path clip-path="url(#clip812)" d="M1512.94 861.936 L1512.94 2719.86 L1727.84 2719.86 L1727.84 861.936 L1512.94 861.936 L1512.94 861.936  Z" fill="#774aaf" fill-rule="evenodd" fill-opacity="1"/>
<polyline clip-path="url(#clip812)" style="stroke:#000000; stroke-linecap:round; stroke-linejoin:round; stroke-width:8; stroke-opacity:1; fill:none" points="1512.94,861.936 1512.94,2719.86 1727.84,2719.86 1727.84,861.936 1512.94,861.936 "/>
<path clip-path="url(#clip812)" d="M3124.71 974.233 L3124.71 2719.86 L3339.61 2719.86 L3339.61 974.233 L3124.71 974.233 L3124.71 974.233  Z" fill="#774aaf" fill-rule="evenodd" fill-opacity="1"/>
<polyline clip-path="url(#clip812)" style="stroke:#000000; stroke-linecap:round; stroke-linejoin:round; stroke-width:8; stroke-opacity:1; fill:none" points="3124.71,974.233 3124.71,2719.86 3339.61,2719.86 3339.61,974.233 3124.71,974.233 "/>
<path clip-path="url(#clip812)" d="M4736.49 1557.86 L4736.49 2719.86 L4951.39 2719.86 L4951.39 1557.86 L4736.49 1557.86 L4736.49 1557.86  Z" fill="#774aaf" fill-rule="evenodd" fill-opacity="1"/>
<polyline clip-path="url(#clip812)" style="stroke:#000000; stroke-linecap:round; stroke-linejoin:round; stroke-width:8; stroke-opacity:1; fill:none" points="4736.49,1557.86 4736.49,2719.86 4951.39,2719.86 4951.39,1557.86 4736.49,1557.86 "/>
<circle clip-path="url(#clip812)" style="fill:#774aaf; stroke:none; fill-opacity:0" cx="1620.39" cy="861.936" r="2"/>
<circle clip-path="url(#clip812)" style="fill:#774aaf; stroke:none; fill-opacity:0" cx="3232.16" cy="974.233" r="2"/>
<circle clip-path="url(#clip812)" style="fill:#774aaf; stroke:none; fill-opacity:0" cx="4843.94" cy="1557.86" r="2"/>
<path clip-path="url(#clip812)" d="M1727.84 828.383 L1727.84 2719.86 L1942.74 2719.86 L1942.74 828.383 L1727.84 828.383 L1727.84 828.383  Z" fill="#7864ca" fill-rule="evenodd" fill-opacity="1"/>
<polyline clip-path="url(#clip812)" style="stroke:#000000; stroke-linecap:round; stroke-linejoin:round; stroke-width:8; stroke-opacity:1; fill:none" points="1727.84,828.383 1727.84,2719.86 1942.74,2719.86 1942.74,828.383 1727.84,828.383 "/>
<path clip-path="url(#clip812)" d="M3339.61 796.429 L3339.61 2719.86 L3554.52 2719.86 L3554.52 796.429 L3339.61 796.429 L3339.61 796.429  Z" fill="#7864ca" fill-rule="evenodd" fill-opacity="1"/>
<polyline clip-path="url(#clip812)" style="stroke:#000000; stroke-linecap:round; stroke-linejoin:round; stroke-width:8; stroke-opacity:1; fill:none" points="3339.61,796.429 3339.61,2719.86 3554.52,2719.86 3554.52,796.429 3339.61,796.429 "/>
<path clip-path="url(#clip812)" d="M4951.39 1414.98 L4951.39 2719.86 L5166.29 2719.86 L5166.29 1414.98 L4951.39 1414.98 L4951.39 1414.98  Z" fill="#7864ca" fill-rule="evenodd" fill-opacity="1"/>
<polyline clip-path="url(#clip812)" style="stroke:#000000; stroke-linecap:round; stroke-linejoin:round; stroke-width:8; stroke-opacity:1; fill:none" points="4951.39,1414.98 4951.39,2719.86 5166.29,2719.86 5166.29,1414.98 4951.39,1414.98 "/>
<circle clip-path="url(#clip812)" style="fill:#7864ca; stroke:none; fill-opacity:0" cx="1835.29" cy="828.383" r="2"/>
<circle clip-path="url(#clip812)" style="fill:#7864ca; stroke:none; fill-opacity:0" cx="3447.07" cy="796.429" r="2"/>
<circle clip-path="url(#clip812)" style="fill:#7864ca; stroke:none; fill-opacity:0" cx="5058.84" cy="1414.98" r="2"/>
<path clip-path="url(#clip810)" d="M734.524 352.339 L5085.09 352.339 L5085.09 168.097 L734.524 168.097  Z" fill="#ffffff" fill-rule="evenodd" fill-opacity="1"/>
<polyline clip-path="url(#clip810)" style="stroke:#000000; stroke-linecap:round; stroke-linejoin:round; stroke-width:4; stroke-opacity:1; fill:none" points="734.524,352.339 5085.09,352.339 5085.09,168.097 734.524,168.097 734.524,352.339 "/>
<path clip-path="url(#clip810)" d="M790.106 254.076 L1123.6 254.076 L1123.6 204.945 L790.106 204.945 L790.106 254.076  Z" fill="#360e24" fill-rule="evenodd" fill-opacity="1"/>
<polyline clip-path="url(#clip810)" style="stroke:#000000; stroke-linecap:round; stroke-linejoin:round; stroke-width:10; stroke-opacity:1; fill:none" points="790.106,254.076 1123.6,254.076 1123.6,204.945 790.106,204.945 790.106,254.076 "/>
<g clip-path="url(#clip810)">
<text style="fill:#000000; fill-opacity:1; font-family:Century Gothic,CenturyGothic,AppleGothic,sans-serif; font-size:58px; text-anchor:start;" transform="rotate(0, 1179.18, 251.011)" x="1179.18" y="251.011">Natural (Model)</text>
</g>
<path clip-path="url(#clip810)" d="M1863.85 254.076 L2197.35 254.076 L2197.35 204.945 L1863.85 204.945 L1863.85 254.076  Z" fill="#511443" fill-rule="evenodd" fill-opacity="1"/>
<polyline clip-path="url(#clip810)" style="stroke:#000000; stroke-linecap:round; stroke-linejoin:round; stroke-width:10; stroke-opacity:1; fill:none" points="1863.85,254.076 2197.35,254.076 2197.35,204.945 1863.85,204.945 1863.85,254.076 "/>
<g clip-path="url(#clip810)">
<text style="fill:#000000; fill-opacity:1; font-family:Century Gothic,CenturyGothic,AppleGothic,sans-serif; font-size:58px; text-anchor:start;" transform="rotate(0, 2252.93, 251.011)" x="2252.93" y="251.011">Natural (Baseline)</text>
</g>
<path clip-path="url(#clip810)" d="M2937.6 254.076 L3271.09 254.076 L3271.09 204.945 L2937.6 204.945 L2937.6 254.076  Z" fill="#642068" fill-rule="evenodd" fill-opacity="1"/>
<polyline clip-path="url(#clip810)" style="stroke:#000000; stroke-linecap:round; stroke-linejoin:round; stroke-width:10; stroke-opacity:1; fill:none" points="2937.6,254.076 3271.09,254.076 3271.09,204.945 2937.6,204.945 2937.6,254.076 "/>
<g clip-path="url(#clip810)">
<text style="fill:#000000; fill-opacity:1; font-family:Century Gothic,CenturyGothic,AppleGothic,sans-serif; font-size:58px; text-anchor:start;" transform="rotate(0, 3326.68, 251.011)" x="3326.68" y="251.011">Natural (Zeroshot)</text>
</g>
<path clip-path="url(#clip810)" d="M4011.34 254.076 L4344.84 254.076 L4344.84 204.945 L4011.34 204.945 L4011.34 254.076  Z" fill="#71338d" fill-rule="evenodd" fill-opacity="1"/>
<polyline clip-path="url(#clip810)" style="stroke:#000000; stroke-linecap:round; stroke-linejoin:round; stroke-width:10; stroke-opacity:1; fill:none" points="4011.34,254.076 4344.84,254.076 4344.84,204.945 4011.34,204.945 4011.34,254.076 "/>
<g clip-path="url(#clip810)">
<text style="fill:#000000; fill-opacity:1; font-family:Century Gothic,CenturyGothic,AppleGothic,sans-serif; font-size:58px; text-anchor:start;" transform="rotate(0, 4400.42, 251.011)" x="4400.42" y="251.011">Natural (Synthetic ICL)</text>
</g>
<path clip-path="url(#clip810)" d="M790.106 315.49 L1123.6 315.49 L1123.6 266.359 L790.106 266.359 L790.106 315.49  Z" fill="#774aaf" fill-rule="evenodd" fill-opacity="1"/>
<polyline clip-path="url(#clip810)" style="stroke:#000000; stroke-linecap:round; stroke-linejoin:round; stroke-width:10; stroke-opacity:1; fill:none" points="790.106,315.49 1123.6,315.49 1123.6,266.359 790.106,266.359 790.106,315.49 "/>
<g clip-path="url(#clip810)">
<text style="fill:#000000; fill-opacity:1; font-family:Century Gothic,CenturyGothic,AppleGothic,sans-serif; font-size:58px; text-anchor:start;" transform="rotate(0, 1179.18, 312.425)" x="1179.18" y="312.425">Natural (Train ICL)</text>
</g>
<path clip-path="url(#clip810)" d="M1863.85 315.49 L2197.35 315.49 L2197.35 266.359 L1863.85 266.359 L1863.85 315.49  Z" fill="#7864ca" fill-rule="evenodd" fill-opacity="1"/>
<polyline clip-path="url(#clip810)" style="stroke:#000000; stroke-linecap:round; stroke-linejoin:round; stroke-width:10; stroke-opacity:1; fill:none" points="1863.85,315.49 2197.35,315.49 2197.35,266.359 1863.85,266.359 1863.85,315.49 "/>
<g clip-path="url(#clip810)">
<text style="fill:#000000; fill-opacity:1; font-family:Century Gothic,CenturyGothic,AppleGothic,sans-serif; font-size:58px; text-anchor:start;" transform="rotate(0, 2252.93, 312.425)" x="2252.93" y="312.425">Natural (Ground ICL)</text>
</g>
</svg>
