<?xml version="1.0" encoding="utf-8"?>
<svg xmlns="http://www.w3.org/2000/svg" xmlns:xlink="http://www.w3.org/1999/xlink" width="1400" height="800" viewBox="0 0 5600 3200">
<defs>
  <clipPath id="clip870">
    <rect x="0" y="0" width="5600" height="3200"/>
  </clipPath>
</defs>
<path clip-path="url(#clip870)" d="M0 3200 L5600 3200 L5600 0 L0 0  Z" fill="#ffffff" fill-rule="evenodd" fill-opacity="1"/>
<defs>
  <clipPath id="clip871">
    <rect x="1120" y="0" width="3921" height="3200"/>
  </clipPath>
</defs>
<path clip-path="url(#clip870)" d="M408.591 2719.86 L5411.02 2719.86 L5411.02 375.984 L408.591 375.984  Z" fill="#ffffff" fill-rule="evenodd" fill-opacity="1"/>
<defs>
  <clipPath id="clip872">
    <rect x="408" y="375" width="5003" height="2345"/>
  </clipPath>
</defs>
<polyline clip-path="url(#clip872)" style="stroke:#000000; stroke-linecap:round; stroke-linejoin:round; stroke-width:2; stroke-opacity:0.3; fill:none" points="1302.42,2719.86 1302.42,375.984 "/>
<polyline clip-path="url(#clip872)" style="stroke:#000000; stroke-linecap:round; stroke-linejoin:round; stroke-width:2; stroke-opacity:0.3; fill:none" points="2909.81,2719.86 2909.81,375.984 "/>
<polyline clip-path="url(#clip872)" style="stroke:#000000; stroke-linecap:round; stroke-linejoin:round; stroke-width:2; stroke-opacity:0.3; fill:none" points="4517.19,2719.86 4517.19,375.984 "/>
<polyline clip-path="url(#clip872)" style="stroke:#000000; stroke-linecap:round; stroke-linejoin:round; stroke-width:2; stroke-opacity:0.3; fill:none" points="1302.42,2719.86 1302.42,375.984 "/>
<polyline clip-path="url(#clip872)" style="stroke:#000000; stroke-linecap:round; stroke-linejoin:round; stroke-width:2; stroke-opacity:0.3; fill:none" points="2909.81,2719.86 2909.81,375.984 "/>
<polyline clip-path="url(#clip872)" style="stroke:#000000; stroke-linecap:round; stroke-linejoin:round; stroke-width:2; stroke-opacity:0.3; fill:none" points="4517.19,2719.86 4517.19,375.984 "/>
<polyline clip-path="url(#clip872)" style="stroke:#000000; stroke-linecap:round; stroke-linejoin:round; stroke-width:2; stroke-opacity:0.3; fill:none" points="408.591,2719.86 5411.02,2719.86 "/>
<polyline clip-path="url(#clip872)" style="stroke:#000000; stroke-linecap:round; stroke-linejoin:round; stroke-width:2; stroke-opacity:0.3; fill:none" points="408.591,2251.08 5411.02,2251.08 "/>
<polyline clip-path="url(#clip872)" style="stroke:#000000; stroke-linecap:round; stroke-linejoin:round; stroke-width:2; stroke-opacity:0.3; fill:none" points="408.591,1782.31 5411.02,1782.31 "/>
<polyline clip-path="url(#clip872)" style="stroke:#000000; stroke-linecap:round; stroke-linejoin:round; stroke-width:2; stroke-opacity:0.3; fill:none" points="408.591,1313.53 5411.02,1313.53 "/>
<polyline clip-path="url(#clip872)" style="stroke:#000000; stroke-linecap:round; stroke-linejoin:round; stroke-width:2; stroke-opacity:0.3; fill:none" points="408.591,844.759 5411.02,844.759 "/>
<polyline clip-path="url(#clip872)" style="stroke:#000000; stroke-linecap:round; stroke-linejoin:round; stroke-width:2; stroke-opacity:0.3; fill:none" points="408.591,375.984 5411.02,375.984 "/>
<polyline clip-path="url(#clip872)" style="stroke:#000000; stroke-linecap:round; stroke-linejoin:round; stroke-width:2; stroke-opacity:0.3; fill:none" points="408.591,2719.86 5411.02,2719.86 "/>
<polyline clip-path="url(#clip872)" style="stroke:#000000; stroke-linecap:round; stroke-linejoin:round; stroke-width:2; stroke-opacity:0.3; fill:none" points="408.591,2251.08 5411.02,2251.08 "/>
<polyline clip-path="url(#clip872)" style="stroke:#000000; stroke-linecap:round; stroke-linejoin:round; stroke-width:2; stroke-opacity:0.3; fill:none" points="408.591,1782.31 5411.02,1782.31 "/>
<polyline clip-path="url(#clip872)" style="stroke:#000000; stroke-linecap:round; stroke-linejoin:round; stroke-width:2; stroke-opacity:0.3; fill:none" points="408.591,1313.53 5411.02,1313.53 "/>
<polyline clip-path="url(#clip872)" style="stroke:#000000; stroke-linecap:round; stroke-linejoin:round; stroke-width:2; stroke-opacity:0.3; fill:none" points="408.591,844.759 5411.02,844.759 "/>
<polyline clip-path="url(#clip872)" style="stroke:#000000; stroke-linecap:round; stroke-linejoin:round; stroke-width:2; stroke-opacity:0.3; fill:none" points="408.591,375.984 5411.02,375.984 "/>
<polyline clip-path="url(#clip870)" style="stroke:#000000; stroke-linecap:round; stroke-linejoin:round; stroke-width:4; stroke-opacity:1; fill:none" points="408.591,2719.86 5411.02,2719.86 "/>
<polyline clip-path="url(#clip870)" style="stroke:#000000; stroke-linecap:round; stroke-linejoin:round; stroke-width:4; stroke-opacity:1; fill:none" points="408.591,375.984 5411.02,375.984 "/>
<polyline clip-path="url(#clip870)" style="stroke:#000000; stroke-linecap:round; stroke-linejoin:round; stroke-width:4; stroke-opacity:1; fill:none" points="1302.42,2719.86 1302.42,2702.5 "/>
<polyline clip-path="url(#clip870)" style="stroke:#000000; stroke-linecap:round; stroke-linejoin:round; stroke-width:4; stroke-opacity:1; fill:none" points="2909.81,2719.86 2909.81,2702.5 "/>
<polyline clip-path="url(#clip870)" style="stroke:#000000; stroke-linecap:round; stroke-linejoin:round; stroke-width:4; stroke-opacity:1; fill:none" points="4517.19,2719.86 4517.19,2702.5 "/>
<polyline clip-path="url(#clip870)" style="stroke:#000000; stroke-linecap:round; stroke-linejoin:round; stroke-width:4; stroke-opacity:1; fill:none" points="1302.42,375.984 1302.42,393.342 "/>
<polyline clip-path="url(#clip870)" style="stroke:#000000; stroke-linecap:round; stroke-linejoin:round; stroke-width:4; stroke-opacity:1; fill:none" points="2909.81,375.984 2909.81,393.342 "/>
<polyline clip-path="url(#clip870)" style="stroke:#000000; stroke-linecap:round; stroke-linejoin:round; stroke-width:4; stroke-opacity:1; fill:none" points="4517.19,375.984 4517.19,393.342 "/>
<g clip-path="url(#clip870)">
<text style="fill:#000000; fill-opacity:1; font-family:Century Gothic,CenturyGothic,AppleGothic,sans-serif; font-size:58px; text-anchor:middle;" transform="rotate(0, 1302.42, 2816.87)" x="1302.42" y="2816.87">spider-test</text>
</g>
<g clip-path="url(#clip870)">
<text style="fill:#000000; fill-opacity:1; font-family:Century Gothic,CenturyGothic,AppleGothic,sans-serif; font-size:58px; text-anchor:middle;" transform="rotate(0, 2909.81, 2816.87)" x="2909.81" y="2816.87">spider-dev</text>
</g>
<g clip-path="url(#clip870)">
<text style="fill:#000000; fill-opacity:1; font-family:Century Gothic,CenturyGothic,AppleGothic,sans-serif; font-size:58px; text-anchor:middle;" transform="rotate(0, 4517.19, 2816.87)" x="4517.19" y="2816.87">bird-dev</text>
</g>
<g clip-path="url(#clip870)">
<text style="fill:#000000; fill-opacity:1; font-family:Century Gothic,CenturyGothic,AppleGothic,sans-serif; font-size:58px; text-anchor:middle;" transform="rotate(0, 2909.81, 2918.09)" x="2909.81" y="2918.09">Benchmark</text>
</g>
<polyline clip-path="url(#clip870)" style="stroke:#000000; stroke-linecap:round; stroke-linejoin:round; stroke-width:4; stroke-opacity:1; fill:none" points="408.591,2719.86 408.591,375.984 "/>
<polyline clip-path="url(#clip870)" style="stroke:#000000; stroke-linecap:round; stroke-linejoin:round; stroke-width:4; stroke-opacity:1; fill:none" points="5411.02,2719.86 5411.02,375.984 "/>
<polyline clip-path="url(#clip870)" style="stroke:#000000; stroke-linecap:round; stroke-linejoin:round; stroke-width:4; stroke-opacity:1; fill:none" points="408.591,2719.86 427.489,2719.86 "/>
<polyline clip-path="url(#clip870)" style="stroke:#000000; stroke-linecap:round; stroke-linejoin:round; stroke-width:4; stroke-opacity:1; fill:none" points="408.591,2251.08 427.489,2251.08 "/>
<polyline clip-path="url(#clip870)" style="stroke:#000000; stroke-linecap:round; stroke-linejoin:round; stroke-width:4; stroke-opacity:1; fill:none" points="408.591,1782.31 427.489,1782.31 "/>
<polyline clip-path="url(#clip870)" style="stroke:#000000; stroke-linecap:round; stroke-linejoin:round; stroke-width:4; stroke-opacity:1; fill:none" points="408.591,1313.53 427.489,1313.53 "/>
<polyline clip-path="url(#clip870)" style="stroke:#000000; stroke-linecap:round; stroke-linejoin:round; stroke-width:4; stroke-opacity:1; fill:none" points="408.591,844.759 427.489,844.759 "/>
<polyline clip-path="url(#clip870)" style="stroke:#000000; stroke-linecap:round; stroke-linejoin:round; stroke-width:4; stroke-opacity:1; fill:none" points="408.591,375.984 427.489,375.984 "/>
<polyline clip-path="url(#clip870)" style="stroke:#000000; stroke-linecap:round; stroke-linejoin:round; stroke-width:4; stroke-opacity:1; fill:none" points="5411.02,2719.86 5392.13,2719.86 "/>
<polyline clip-path="url(#clip870)" style="stroke:#000000; stroke-linecap:round; stroke-linejoin:round; stroke-width:4; stroke-opacity:1; fill:none" points="5411.02,2251.08 5392.13,2251.08 "/>
<polyline clip-path="url(#clip870)" style="stroke:#000000; stroke-linecap:round; stroke-linejoin:round; stroke-width:4; stroke-opacity:1; fill:none" points="5411.02,1782.31 5392.13,1782.31 "/>
<polyline clip-path="url(#clip870)" style="stroke:#000000; stroke-linecap:round; stroke-linejoin:round; stroke-width:4; stroke-opacity:1; fill:none" points="5411.02,1313.53 5392.13,1313.53 "/>
<polyline clip-path="url(#clip870)" style="stroke:#000000; stroke-linecap:round; stroke-linejoin:round; stroke-width:4; stroke-opacity:1; fill:none" points="5411.02,844.759 5392.13,844.759 "/>
<polyline clip-path="url(#clip870)" style="stroke:#000000; stroke-linecap:round; stroke-linejoin:round; stroke-width:4; stroke-opacity:1; fill:none" points="5411.02,375.984 5392.13,375.984 "/>
<g clip-path="url(#clip870)">
<text style="fill:#000000; fill-opacity:1; font-family:Century Gothic,CenturyGothic,AppleGothic,sans-serif; font-size:58px; text-anchor:middle;" transform="rotate(0, 308.42, 2741.36)" x="308.42" y="2741.36">0</text>
</g>
<g clip-path="url(#clip870)">
<text style="fill:#000000; fill-opacity:1; font-family:Century Gothic,CenturyGothic,AppleGothic,sans-serif; font-size:58px; text-anchor:middle;" transform="rotate(0, 292.249, 2272.58)" x="292.249" y="2272.58">20</text>
</g>
<g clip-path="url(#clip870)">
<text style="fill:#000000; fill-opacity:1; font-family:Century Gothic,CenturyGothic,AppleGothic,sans-serif; font-size:58px; text-anchor:middle;" transform="rotate(0, 292.249, 1803.81)" x="292.249" y="1803.81">40</text>
</g>
<g clip-path="url(#clip870)">
<text style="fill:#000000; fill-opacity:1; font-family:Century Gothic,CenturyGothic,AppleGothic,sans-serif; font-size:58px; text-anchor:middle;" transform="rotate(0, 292.249, 1335.03)" x="292.249" y="1335.03">60</text>
</g>
<g clip-path="url(#clip870)">
<text style="fill:#000000; fill-opacity:1; font-family:Century Gothic,CenturyGothic,AppleGothic,sans-serif; font-size:58px; text-anchor:middle;" transform="rotate(0, 292.249, 866.259)" x="292.249" y="866.259">80</text>
</g>
<g clip-path="url(#clip870)">
<text style="fill:#000000; fill-opacity:1; font-family:Century Gothic,CenturyGothic,AppleGothic,sans-serif; font-size:58px; text-anchor:middle;" transform="rotate(0, 276.079, 397.484)" x="276.079" y="397.484">100</text>
</g>
<g clip-path="url(#clip870)">
<text style="fill:#000000; fill-opacity:1; font-family:Century Gothic,CenturyGothic,AppleGothic,sans-serif; font-size:58px; text-anchor:middle;" transform="rotate(-90, 133.752, 1547.92)" x="133.752" y="1547.92">Execution Accuracy (%)</text>
</g>
<g clip-path="url(#clip870)">
<text style="fill:#000000; fill-opacity:1; font-family:Century Gothic,CenturyGothic,AppleGothic,sans-serif; font-size:70px; text-anchor:middle;" transform="rotate(0, 2909.81, 62.4)" x="2909.81" y="62.4">Impact of Example Source on Performance</text>
</g>
<path clip-path="url(#clip872)" d="M659.471 842.415 L659.471 2719.86 L1088.11 2719.86 L1088.11 842.415 L659.471 842.415 L659.471 842.415  Z" fill="#360e24" fill-rule="evenodd" fill-opacity="1"/>
<polyline clip-path="url(#clip872)" style="stroke:#000000; stroke-linecap:round; stroke-linejoin:round; stroke-width:8; stroke-opacity:1; fill:none" points="659.471,842.415 659.471,2719.86 1088.11,2719.86 1088.11,842.415 659.471,842.415 "/>
<path clip-path="url(#clip872)" d="M2266.85 926.56 L2266.85 2719.86 L2695.49 2719.86 L2695.49 926.56 L2266.85 926.56 L2266.85 926.56  Z" fill="#360e24" fill-rule="evenodd" fill-opacity="1"/>
<polyline clip-path="url(#clip872)" style="stroke:#000000; stroke-linecap:round; stroke-linejoin:round; stroke-width:8; stroke-opacity:1; fill:none" points="2266.85,926.56 2266.85,2719.86 2695.49,2719.86 2695.49,926.56 2266.85,926.56 "/>
<path clip-path="url(#clip872)" d="M3874.24 1456.98 L3874.24 2719.86 L4302.87 2719.86 L4302.87 1456.98 L3874.24 1456.98 L3874.24 1456.98  Z" fill="#360e24" fill-rule="evenodd" fill-opacity="1"/>
<polyline clip-path="url(#clip872)" style="stroke:#000000; stroke-linecap:round; stroke-linejoin:round; stroke-width:8; stroke-opacity:1; fill:none" points="3874.24,1456.98 3874.24,2719.86 4302.87,2719.86 4302.87,1456.98 3874.24,1456.98 "/>
<circle clip-path="url(#clip872)" style="fill:#360e24; stroke:none; fill-opacity:0" cx="873.789" cy="842.415" r="2"/>
<circle clip-path="url(#clip872)" style="fill:#360e24; stroke:none; fill-opacity:0" cx="2481.17" cy="926.56" r="2"/>
<circle clip-path="url(#clip872)" style="fill:#360e24; stroke:none; fill-opacity:0" cx="4088.55" cy="1456.98" r="2"/>
<path clip-path="url(#clip872)" d="M1088.11 811.945 L1088.11 2719.86 L1516.74 2719.86 L1516.74 811.945 L1088.11 811.945 L1088.11 811.945  Z" fill="#511443" fill-rule="evenodd" fill-opacity="1"/>
<polyline clip-path="url(#clip872)" style="stroke:#000000; stroke-linecap:round; stroke-linejoin:round; stroke-width:8; stroke-opacity:1; fill:none" points="1088.11,811.945 1088.11,2719.86 1516.74,2719.86 1516.74,811.945 1088.11,811.945 "/>
<path clip-path="url(#clip872)" d="M2695.49 927.263 L2695.49 2719.86 L3124.13 2719.86 L3124.13 927.263 L2695.49 927.263 L2695.49 927.263  Z" fill="#511443" fill-rule="evenodd" fill-opacity="1"/>
<polyline clip-path="url(#clip872)" style="stroke:#000000; stroke-linecap:round; stroke-linejoin:round; stroke-width:8; stroke-opacity:1; fill:none" points="2695.49,927.263 2695.49,2719.86 3124.13,2719.86 3124.13,927.263 2695.49,927.263 "/>
<path clip-path="url(#clip872)" d="M4302.87 1526.59 L4302.87 2719.86 L4731.51 2719.86 L4731.51 1526.59 L4302.87 1526.59 L4302.87 1526.59  Z" fill="#511443" fill-rule="evenodd" fill-opacity="1"/>
<polyline clip-path="url(#clip872)" style="stroke:#000000; stroke-linecap:round; stroke-linejoin:round; stroke-width:8; stroke-opacity:1; fill:none" points="4302.87,1526.59 4302.87,2719.86 4731.51,2719.86 4731.51,1526.59 4302.87,1526.59 "/>
<circle clip-path="url(#clip872)" style="fill:#511443; stroke:none; fill-opacity:0" cx="1302.42" cy="811.945" r="2"/>
<circle clip-path="url(#clip872)" style="fill:#511443; stroke:none; fill-opacity:0" cx="2909.81" cy="927.263" r="2"/>
<circle clip-path="url(#clip872)" style="fill:#511443; stroke:none; fill-opacity:0" cx="4517.19" cy="1526.59" r="2"/>
<path clip-path="url(#clip872)" d="M1516.74 777.49 L1516.74 2719.86 L1945.38 2719.86 L1945.38 777.49 L1516.74 777.49 L1516.74 777.49  Z" fill="#642068" fill-rule="evenodd" fill-opacity="1"/>
<polyline clip-path="url(#clip872)" style="stroke:#000000; stroke-linecap:round; stroke-linejoin:round; stroke-width:8; stroke-opacity:1; fill:none" points="1516.74,777.49 1516.74,2719.86 1945.38,2719.86 1945.38,777.49 1516.74,777.49 "/>
<path clip-path="url(#clip872)" d="M3124.13 744.675 L3124.13 2719.86 L3552.76 2719.86 L3552.76 744.675 L3124.13 744.675 L3124.13 744.675  Z" fill="#642068" fill-rule="evenodd" fill-opacity="1"/>
<polyline clip-path="url(#clip872)" style="stroke:#000000; stroke-linecap:round; stroke-linejoin:round; stroke-width:8; stroke-opacity:1; fill:none" points="3124.13,744.675 3124.13,2719.86 3552.76,2719.86 3552.76,744.675 3124.13,744.675 "/>
<path clip-path="url(#clip872)" d="M4731.51 1379.87 L4731.51 2719.86 L5160.14 2719.86 L5160.14 1379.87 L4731.51 1379.87 L4731.51 1379.87  Z" fill="#642068" fill-rule="evenodd" fill-opacity="1"/>
<polyline clip-path="url(#clip872)" style="stroke:#000000; stroke-linecap:round; stroke-linejoin:round; stroke-width:8; stroke-opacity:1; fill:none" points="4731.51,1379.87 4731.51,2719.86 5160.14,2719.86 5160.14,1379.87 4731.51,1379.87 "/>
<circle clip-path="url(#clip872)" style="fill:#642068; stroke:none; fill-opacity:0" cx="1731.06" cy="777.49" r="2"/>
<circle clip-path="url(#clip872)" style="fill:#642068; stroke:none; fill-opacity:0" cx="3338.44" cy="744.675" r="2"/>
<circle clip-path="url(#clip872)" style="fill:#642068; stroke:none; fill-opacity:0" cx="4945.83" cy="1379.87" r="2"/>
<path clip-path="url(#clip870)" d="M1271.4 290.925 L4548.22 290.925 L4548.22 168.097 L1271.4 168.097  Z" fill="#ffffff" fill-rule="evenodd" fill-opacity="1"/>
<polyline clip-path="url(#clip870)" style="stroke:#000000; stroke-linecap:round; stroke-linejoin:round; stroke-width:4; stroke-opacity:1; fill:none" points="1271.4,290.925 4548.22,290.925 4548.22,168.097 1271.4,168.097 1271.4,290.925 "/>
<path clip-path="url(#clip870)" d="M1326.98 254.076 L1660.48 254.076 L1660.48 204.945 L1326.98 204.945 L1326.98 254.076  Z" fill="#360e24" fill-rule="evenodd" fill-opacity="1"/>
<polyline clip-path="url(#clip870)" style="stroke:#000000; stroke-linecap:round; stroke-linejoin:round; stroke-width:10; stroke-opacity:1; fill:none" points="1326.98,254.076 1660.48,254.076 1660.48,204.945 1326.98,204.945 1326.98,254.076 "/>
<g clip-path="url(#clip870)">
<text style="fill:#000000; fill-opacity:1; font-family:Century Gothic,CenturyGothic,AppleGothic,sans-serif; font-size:58px; text-anchor:start;" transform="rotate(0, 1716.06, 251.011)" x="1716.06" y="251.011">Natural (Synthetic ICL)</text>
</g>
<path clip-path="url(#clip870)" d="M2400.73 254.076 L2734.22 254.076 L2734.22 204.945 L2400.73 204.945 L2400.73 254.076  Z" fill="#511443" fill-rule="evenodd" fill-opacity="1"/>
<polyline clip-path="url(#clip870)" style="stroke:#000000; stroke-linecap:round; stroke-linejoin:round; stroke-width:10; stroke-opacity:1; fill:none" points="2400.73,254.076 2734.22,254.076 2734.22,204.945 2400.73,204.945 2400.73,254.076 "/>
<g clip-path="url(#clip870)">
<text style="fill:#000000; fill-opacity:1; font-family:Century Gothic,CenturyGothic,AppleGothic,sans-serif; font-size:58px; text-anchor:start;" transform="rotate(0, 2789.8, 251.011)" x="2789.8" y="251.011">Natural (Train ICL)</text>
</g>
<path clip-path="url(#clip870)" d="M3474.47 254.076 L3807.97 254.076 L3807.97 204.945 L3474.47 204.945 L3474.47 254.076  Z" fill="#642068" fill-rule="evenodd" fill-opacity="1"/>
<polyline clip-path="url(#clip870)" style="stroke:#000000; stroke-linecap:round; stroke-linejoin:round; stroke-width:10; stroke-opacity:1; fill:none" points="3474.47,254.076 3807.97,254.076 3807.97,204.945 3474.47,204.945 3474.47,254.076 "/>
<g clip-path="url(#clip870)">
<text style="fill:#000000; fill-opacity:1; font-family:Century Gothic,CenturyGothic,AppleGothic,sans-serif; font-size:58px; text-anchor:start;" transform="rotate(0, 3863.55, 251.011)" x="3863.55" y="251.011">Natural (Ground ICL)</text>
</g>
</svg>
