<?xml version="1.0" encoding="utf-8"?>
<svg xmlns="http://www.w3.org/2000/svg" xmlns:xlink="http://www.w3.org/1999/xlink" width="1400" height="800" viewBox="0 0 5600 3200">
<defs>
  <clipPath id="clip780">
    <rect x="0" y="0" width="5600" height="3200"/>
  </clipPath>
</defs>
<path clip-path="url(#clip780)" d="M0 3200 L5600 3200 L5600 0 L0 0  Z" fill="#ffffff" fill-rule="evenodd" fill-opacity="1"/>
<defs>
  <clipPath id="clip781">
    <rect x="1120" y="0" width="3921" height="3200"/>
  </clipPath>
</defs>
<path clip-path="url(#clip780)" d="M376.249 2719.86 L5411.02 2719.86 L5411.02 437.398 L376.249 437.398  Z" fill="#ffffff" fill-rule="evenodd" fill-opacity="1"/>
<defs>
  <clipPath id="clip782">
    <rect x="376" y="437" width="5036" height="2283"/>
  </clipPath>
</defs>
<polyline clip-path="url(#clip782)" style="stroke:#000000; stroke-linecap:round; stroke-linejoin:round; stroke-width:2; stroke-opacity:0.3; fill:none" points="1273.65,2719.86 1273.65,437.398 "/>
<polyline clip-path="url(#clip782)" style="stroke:#000000; stroke-linecap:round; stroke-linejoin:round; stroke-width:2; stroke-opacity:0.3; fill:none" points="2893.64,2719.86 2893.64,437.398 "/>
<polyline clip-path="url(#clip782)" style="stroke:#000000; stroke-linecap:round; stroke-linejoin:round; stroke-width:2; stroke-opacity:0.3; fill:none" points="4513.62,2719.86 4513.62,437.398 "/>
<polyline clip-path="url(#clip782)" style="stroke:#000000; stroke-linecap:round; stroke-linejoin:round; stroke-width:2; stroke-opacity:0.3; fill:none" points="1273.65,2719.86 1273.65,437.398 "/>
<polyline clip-path="url(#clip782)" style="stroke:#000000; stroke-linecap:round; stroke-linejoin:round; stroke-width:2; stroke-opacity:0.3; fill:none" points="2893.64,2719.86 2893.64,437.398 "/>
<polyline clip-path="url(#clip782)" style="stroke:#000000; stroke-linecap:round; stroke-linejoin:round; stroke-width:2; stroke-opacity:0.3; fill:none" points="4513.62,2719.86 4513.62,437.398 "/>
<polyline clip-path="url(#clip782)" style="stroke:#000000; stroke-linecap:round; stroke-linejoin:round; stroke-width:2; stroke-opacity:0.3; fill:none" points="376.249,2604.07 5411.02,2604.07 "/>
<polyline clip-path="url(#clip782)" style="stroke:#000000; stroke-linecap:round; stroke-linejoin:round; stroke-width:2; stroke-opacity:0.3; fill:none" points="376.249,2068.03 5411.02,2068.03 "/>
<polyline clip-path="url(#clip782)" style="stroke:#000000; stroke-linecap:round; stroke-linejoin:round; stroke-width:2; stroke-opacity:0.3; fill:none" points="376.249,1531.99 5411.02,1531.99 "/>
<polyline clip-path="url(#clip782)" style="stroke:#000000; stroke-linecap:round; stroke-linejoin:round; stroke-width:2; stroke-opacity:0.3; fill:none" points="376.249,995.952 5411.02,995.952 "/>
<polyline clip-path="url(#clip782)" style="stroke:#000000; stroke-linecap:round; stroke-linejoin:round; stroke-width:2; stroke-opacity:0.3; fill:none" points="376.249,459.911 5411.02,459.911 "/>
<polyline clip-path="url(#clip782)" style="stroke:#000000; stroke-linecap:round; stroke-linejoin:round; stroke-width:2; stroke-opacity:0.3; fill:none" points="376.249,2604.07 5411.02,2604.07 "/>
<polyline clip-path="url(#clip782)" style="stroke:#000000; stroke-linecap:round; stroke-linejoin:round; stroke-width:2; stroke-opacity:0.3; fill:none" points="376.249,2068.03 5411.02,2068.03 "/>
<polyline clip-path="url(#clip782)" style="stroke:#000000; stroke-linecap:round; stroke-linejoin:round; stroke-width:2; stroke-opacity:0.3; fill:none" points="376.249,1531.99 5411.02,1531.99 "/>
<polyline clip-path="url(#clip782)" style="stroke:#000000; stroke-linecap:round; stroke-linejoin:round; stroke-width:2; stroke-opacity:0.3; fill:none" points="376.249,995.952 5411.02,995.952 "/>
<polyline clip-path="url(#clip782)" style="stroke:#000000; stroke-linecap:round; stroke-linejoin:round; stroke-width:2; stroke-opacity:0.3; fill:none" points="376.249,459.911 5411.02,459.911 "/>
<polyline clip-path="url(#clip780)" style="stroke:#000000; stroke-linecap:round; stroke-linejoin:round; stroke-width:4; stroke-opacity:1; fill:none" points="376.249,2719.86 5411.02,2719.86 "/>
<polyline clip-path="url(#clip780)" style="stroke:#000000; stroke-linecap:round; stroke-linejoin:round; stroke-width:4; stroke-opacity:1; fill:none" points="376.249,437.398 5411.02,437.398 "/>
<polyline clip-path="url(#clip780)" style="stroke:#000000; stroke-linecap:round; stroke-linejoin:round; stroke-width:4; stroke-opacity:1; fill:none" points="1273.65,2719.86 1273.65,2702.96 "/>
<polyline clip-path="url(#clip780)" style="stroke:#000000; stroke-linecap:round; stroke-linejoin:round; stroke-width:4; stroke-opacity:1; fill:none" points="2893.64,2719.86 2893.64,2702.96 "/>
<polyline clip-path="url(#clip780)" style="stroke:#000000; stroke-linecap:round; stroke-linejoin:round; stroke-width:4; stroke-opacity:1; fill:none" points="4513.62,2719.86 4513.62,2702.96 "/>
<polyline clip-path="url(#clip780)" style="stroke:#000000; stroke-linecap:round; stroke-linejoin:round; stroke-width:4; stroke-opacity:1; fill:none" points="1273.65,437.398 1273.65,454.301 "/>
<polyline clip-path="url(#clip780)" style="stroke:#000000; stroke-linecap:round; stroke-linejoin:round; stroke-width:4; stroke-opacity:1; fill:none" points="2893.64,437.398 2893.64,454.301 "/>
<polyline clip-path="url(#clip780)" style="stroke:#000000; stroke-linecap:round; stroke-linejoin:round; stroke-width:4; stroke-opacity:1; fill:none" points="4513.62,437.398 4513.62,454.301 "/>
<g clip-path="url(#clip780)">
<text style="fill:#000000; fill-opacity:1; font-family:Century Gothic,CenturyGothic,AppleGothic,sans-serif; font-size:58px; text-anchor:middle;" transform="rotate(0, 1273.65, 2816.87)" x="1273.65" y="2816.87">spider-test</text>
</g>
<g clip-path="url(#clip780)">
<text style="fill:#000000; fill-opacity:1; font-family:Century Gothic,CenturyGothic,AppleGothic,sans-serif; font-size:58px; text-anchor:middle;" transform="rotate(0, 2893.64, 2816.87)" x="2893.64" y="2816.87">spider-dev</text>
</g>
<g clip-path="url(#clip780)">
<text style="fill:#000000; fill-opacity:1; font-family:Century Gothic,CenturyGothic,AppleGothic,sans-serif; font-size:58px; text-anchor:middle;" transform="rotate(0, 4513.62, 2816.87)" x="4513.62" y="2816.87">bird-dev</text>
</g>
<g clip-path="url(#clip780)">
<text style="fill:#000000; fill-opacity:1; font-family:Century Gothic,CenturyGothic,AppleGothic,sans-serif; font-size:58px; text-anchor:middle;" transform="rotate(0, 2893.64, 2918.09)" x="2893.64" y="2918.09">Benchmark</text>
</g>
<polyline clip-path="url(#clip780)" style="stroke:#000000; stroke-linecap:round; stroke-linejoin:round; stroke-width:4; stroke-opacity:1; fill:none" points="376.249,2719.86 376.249,437.398 "/>
<polyline clip-path="url(#clip780)" style="stroke:#000000; stroke-linecap:round; stroke-linejoin:round; stroke-width:4; stroke-opacity:1; fill:none" points="5411.02,2719.86 5411.02,437.398 "/>
<polyline clip-path="url(#clip780)" style="stroke:#000000; stroke-linecap:round; stroke-linejoin:round; stroke-width:4; stroke-opacity:1; fill:none" points="376.249,2604.07 395.147,2604.07 "/>
<polyline clip-path="url(#clip780)" style="stroke:#000000; stroke-linecap:round; stroke-linejoin:round; stroke-width:4; stroke-opacity:1; fill:none" points="376.249,2068.03 395.147,2068.03 "/>
<polyline clip-path="url(#clip780)" style="stroke:#000000; stroke-linecap:round; stroke-linejoin:round; stroke-width:4; stroke-opacity:1; fill:none" points="376.249,1531.99 395.147,1531.99 "/>
<polyline clip-path="url(#clip780)" style="stroke:#000000; stroke-linecap:round; stroke-linejoin:round; stroke-width:4; stroke-opacity:1; fill:none" points="376.249,995.952 395.147,995.952 "/>
<polyline clip-path="url(#clip780)" style="stroke:#000000; stroke-linecap:round; stroke-linejoin:round; stroke-width:4; stroke-opacity:1; fill:none" points="376.249,459.911 395.147,459.911 "/>
<polyline clip-path="url(#clip780)" style="stroke:#000000; stroke-linecap:round; stroke-linejoin:round; stroke-width:4; stroke-opacity:1; fill:none" points="5411.02,2604.07 5392.13,2604.07 "/>
<polyline clip-path="url(#clip780)" style="stroke:#000000; stroke-linecap:round; stroke-linejoin:round; stroke-width:4; stroke-opacity:1; fill:none" points="5411.02,2068.03 5392.13,2068.03 "/>
<polyline clip-path="url(#clip780)" style="stroke:#000000; stroke-linecap:round; stroke-linejoin:round; stroke-width:4; stroke-opacity:1; fill:none" points="5411.02,1531.99 5392.13,1531.99 "/>
<polyline clip-path="url(#clip780)" style="stroke:#000000; stroke-linecap:round; stroke-linejoin:round; stroke-width:4; stroke-opacity:1; fill:none" points="5411.02,995.952 5392.13,995.952 "/>
<polyline clip-path="url(#clip780)" style="stroke:#000000; stroke-linecap:round; stroke-linejoin:round; stroke-width:4; stroke-opacity:1; fill:none" points="5411.02,459.911 5392.13,459.911 "/>
<g clip-path="url(#clip780)">
<text style="fill:#000000; fill-opacity:1; font-family:Century Gothic,CenturyGothic,AppleGothic,sans-serif; font-size:58px; text-anchor:middle;" transform="rotate(0, 276.079, 2625.57)" x="276.079" y="2625.57">0</text>
</g>
<g clip-path="url(#clip780)">
<text style="fill:#000000; fill-opacity:1; font-family:Century Gothic,CenturyGothic,AppleGothic,sans-serif; font-size:58px; text-anchor:middle;" transform="rotate(0, 276.079, 2089.53)" x="276.079" y="2089.53">5</text>
</g>
<g clip-path="url(#clip780)">
<text style="fill:#000000; fill-opacity:1; font-family:Century Gothic,CenturyGothic,AppleGothic,sans-serif; font-size:58px; text-anchor:middle;" transform="rotate(0, 259.908, 1553.49)" x="259.908" y="1553.49">10</text>
</g>
<g clip-path="url(#clip780)">
<text style="fill:#000000; fill-opacity:1; font-family:Century Gothic,CenturyGothic,AppleGothic,sans-serif; font-size:58px; text-anchor:middle;" transform="rotate(0, 259.908, 1017.45)" x="259.908" y="1017.45">15</text>
</g>
<g clip-path="url(#clip780)">
<text style="fill:#000000; fill-opacity:1; font-family:Century Gothic,CenturyGothic,AppleGothic,sans-serif; font-size:58px; text-anchor:middle;" transform="rotate(0, 259.908, 481.411)" x="259.908" y="481.411">20</text>
</g>
<g clip-path="url(#clip780)">
<text style="fill:#000000; fill-opacity:1; font-family:Century Gothic,CenturyGothic,AppleGothic,sans-serif; font-size:58px; text-anchor:middle;" transform="rotate(-90, 133.752, 1578.63)" x="133.752" y="1578.63">Improvement in EA (%)</text>
</g>
<g clip-path="url(#clip780)">
<text style="fill:#000000; fill-opacity:1; font-family:Century Gothic,CenturyGothic,AppleGothic,sans-serif; font-size:70px; text-anchor:middle;" transform="rotate(0, 2893.64, 62.4)" x="2893.64" y="62.4">Relative Performance Improvement Over Baseline</text>
</g>
<path clip-path="url(#clip782)" d="M625.662 2451.84 L625.662 2604.07 L949.658 2604.07 L949.658 2451.84 L625.662 2451.84 L625.662 2451.84  Z" fill="#360e24" fill-rule="evenodd" fill-opacity="1"/>
<polyline clip-path="url(#clip782)" style="stroke:#000000; stroke-linecap:round; stroke-linejoin:round; stroke-width:8; stroke-opacity:1; fill:none" points="625.662,2451.84 625.662,2604.07 949.658,2604.07 949.658,2451.84 625.662,2451.84 "/>
<path clip-path="url(#clip782)" d="M2245.64 2473.28 L2245.64 2604.07 L2569.64 2604.07 L2569.64 2473.28 L2245.64 2473.28 L2245.64 2473.28  Z" fill="#360e24" fill-rule="evenodd" fill-opacity="1"/>
<polyline clip-path="url(#clip782)" style="stroke:#000000; stroke-linecap:round; stroke-linejoin:round; stroke-width:8; stroke-opacity:1; fill:none" points="2245.64,2473.28 2245.64,2604.07 2569.64,2604.07 2569.64,2473.28 2245.64,2473.28 "/>
<path clip-path="url(#clip782)" d="M3865.63 2582.63 L3865.63 2604.07 L4189.62 2604.07 L4189.62 2582.63 L3865.63 2582.63 L3865.63 2582.63  Z" fill="#360e24" fill-rule="evenodd" fill-opacity="1"/>
<polyline clip-path="url(#clip782)" style="stroke:#000000; stroke-linecap:round; stroke-linejoin:round; stroke-width:8; stroke-opacity:1; fill:none" points="3865.63,2582.63 3865.63,2604.07 4189.62,2604.07 4189.62,2582.63 3865.63,2582.63 "/>
<circle clip-path="url(#clip782)" style="fill:#360e24; stroke:none; fill-opacity:0" cx="787.66" cy="2451.84" r="2"/>
<circle clip-path="url(#clip782)" style="fill:#360e24; stroke:none; fill-opacity:0" cx="2407.64" cy="2473.28" r="2"/>
<circle clip-path="url(#clip782)" style="fill:#360e24; stroke:none; fill-opacity:0" cx="4027.62" cy="2582.63" r="2"/>
<path clip-path="url(#clip782)" d="M949.658 2280.31 L949.658 2604.07 L1273.65 2604.07 L1273.65 2280.31 L949.658 2280.31 L949.658 2280.31  Z" fill="#511443" fill-rule="evenodd" fill-opacity="1"/>
<polyline clip-path="url(#clip782)" style="stroke:#000000; stroke-linecap:round; stroke-linejoin:round; stroke-width:8; stroke-opacity:1; fill:none" points="949.658,2280.31 949.658,2604.07 1273.65,2604.07 1273.65,2280.31 949.658,2280.31 "/>
<path clip-path="url(#clip782)" d="M2569.64 2716.64 L2569.64 2604.07 L2893.64 2604.07 L2893.64 2716.64 L2569.64 2716.64 L2569.64 2716.64  Z" fill="#511443" fill-rule="evenodd" fill-opacity="1"/>
<polyline clip-path="url(#clip782)" style="stroke:#000000; stroke-linecap:round; stroke-linejoin:round; stroke-width:8; stroke-opacity:1; fill:none" points="2569.64,2716.64 2569.64,2604.07 2893.64,2604.07 2893.64,2716.64 2569.64,2716.64 "/>
<path clip-path="url(#clip782)" d="M4189.62 790.113 L4189.62 2604.07 L4513.62 2604.07 L4513.62 790.113 L4189.62 790.113 L4189.62 790.113  Z" fill="#511443" fill-rule="evenodd" fill-opacity="1"/>
<polyline clip-path="url(#clip782)" style="stroke:#000000; stroke-linecap:round; stroke-linejoin:round; stroke-width:8; stroke-opacity:1; fill:none" points="4189.62,790.113 4189.62,2604.07 4513.62,2604.07 4513.62,790.113 4189.62,790.113 "/>
<circle clip-path="url(#clip782)" style="fill:#511443; stroke:none; fill-opacity:0" cx="1111.66" cy="2280.31" r="2"/>
<circle clip-path="url(#clip782)" style="fill:#511443; stroke:none; fill-opacity:0" cx="2731.64" cy="2716.64" r="2"/>
<circle clip-path="url(#clip782)" style="fill:#511443; stroke:none; fill-opacity:0" cx="4351.62" cy="790.113" r="2"/>
<path clip-path="url(#clip782)" d="M1273.65 2140.94 L1273.65 2604.07 L1597.65 2604.07 L1597.65 2140.94 L1273.65 2140.94 L1273.65 2140.94  Z" fill="#642068" fill-rule="evenodd" fill-opacity="1"/>
<polyline clip-path="url(#clip782)" style="stroke:#000000; stroke-linecap:round; stroke-linejoin:round; stroke-width:8; stroke-opacity:1; fill:none" points="1273.65,2140.94 1273.65,2604.07 1597.65,2604.07 1597.65,2140.94 1273.65,2140.94 "/>
<path clip-path="url(#clip782)" d="M2893.64 2719.86 L2893.64 2604.07 L3217.63 2604.07 L3217.63 2719.86 L2893.64 2719.86 L2893.64 2719.86  Z" fill="#642068" fill-rule="evenodd" fill-opacity="1"/>
<polyline clip-path="url(#clip782)" style="stroke:#000000; stroke-linecap:round; stroke-linejoin:round; stroke-width:8; stroke-opacity:1; fill:none" points="2893.64,2719.86 2893.64,2604.07 3217.63,2604.07 3217.63,2719.86 2893.64,2719.86 "/>
<path clip-path="url(#clip782)" d="M4513.62 1108.52 L4513.62 2604.07 L4837.61 2604.07 L4837.61 1108.52 L4513.62 1108.52 L4513.62 1108.52  Z" fill="#642068" fill-rule="evenodd" fill-opacity="1"/>
<polyline clip-path="url(#clip782)" style="stroke:#000000; stroke-linecap:round; stroke-linejoin:round; stroke-width:8; stroke-opacity:1; fill:none" points="4513.62,1108.52 4513.62,2604.07 4837.61,2604.07 4837.61,1108.52 4513.62,1108.52 "/>
<circle clip-path="url(#clip782)" style="fill:#642068; stroke:none; fill-opacity:0" cx="1435.65" cy="2140.94" r="2"/>
<circle clip-path="url(#clip782)" style="fill:#642068; stroke:none; fill-opacity:0" cx="3055.63" cy="2719.86" r="2"/>
<circle clip-path="url(#clip782)" style="fill:#642068; stroke:none; fill-opacity:0" cx="4675.62" cy="1108.52" r="2"/>
<path clip-path="url(#clip782)" d="M1597.65 1983.34 L1597.65 2604.07 L1921.65 2604.07 L1921.65 1983.34 L1597.65 1983.34 L1597.65 1983.34  Z" fill="#71338d" fill-rule="evenodd" fill-opacity="1"/>
<polyline clip-path="url(#clip782)" style="stroke:#000000; stroke-linecap:round; stroke-linejoin:round; stroke-width:8; stroke-opacity:1; fill:none" points="1597.65,1983.34 1597.65,2604.07 1921.65,2604.07 1921.65,1983.34 1597.65,1983.34 "/>
<path clip-path="url(#clip782)" d="M3217.63 1884.71 L3217.63 2604.07 L3541.63 2604.07 L3541.63 1884.71 L3217.63 1884.71 L3217.63 1884.71  Z" fill="#71338d" fill-rule="evenodd" fill-opacity="1"/>
<polyline clip-path="url(#clip782)" style="stroke:#000000; stroke-linecap:round; stroke-linejoin:round; stroke-width:8; stroke-opacity:1; fill:none" points="3217.63,1884.71 3217.63,2604.07 3541.63,2604.07 3541.63,1884.71 3217.63,1884.71 "/>
<path clip-path="url(#clip782)" d="M4837.61 437.398 L4837.61 2604.07 L5161.61 2604.07 L5161.61 437.398 L4837.61 437.398 L4837.61 437.398  Z" fill="#71338d" fill-rule="evenodd" fill-opacity="1"/>
<polyline clip-path="url(#clip782)" style="stroke:#000000; stroke-linecap:round; stroke-linejoin:round; stroke-width:8; stroke-opacity:1; fill:none" points="4837.61,437.398 4837.61,2604.07 5161.61,2604.07 5161.61,437.398 4837.61,437.398 "/>
<circle clip-path="url(#clip782)" style="fill:#71338d; stroke:none; fill-opacity:0" cx="1759.65" cy="1983.34" r="2"/>
<circle clip-path="url(#clip782)" style="fill:#71338d; stroke:none; fill-opacity:0" cx="3379.63" cy="1884.71" r="2"/>
<circle clip-path="url(#clip782)" style="fill:#71338d; stroke:none; fill-opacity:0" cx="4999.61" cy="437.398" r="2"/>
<polyline clip-path="url(#clip782)" style="stroke:#000000; stroke-linecap:round; stroke-linejoin:round; stroke-width:4; stroke-opacity:1; fill:none" stroke-dasharray="16, 10" points="-4658.52,2604.07 10445.8,2604.07 "/>
<path clip-path="url(#clip780)" d="M712.424 352.339 L5074.85 352.339 L5074.85 168.097 L712.424 168.097  Z" fill="#ffffff" fill-rule="evenodd" fill-opacity="1"/>
<polyline clip-path="url(#clip780)" style="stroke:#000000; stroke-linecap:round; stroke-linejoin:round; stroke-width:4; stroke-opacity:1; fill:none" points="712.424,352.339 5074.85,352.339 5074.85,168.097 712.424,168.097 712.424,352.339 "/>
<path clip-path="url(#clip780)" d="M768.366 254.076 L1104.02 254.076 L1104.02 204.945 L768.366 204.945 L768.366 254.076  Z" fill="#360e24" fill-rule="evenodd" fill-opacity="1"/>
<polyline clip-path="url(#clip780)" style="stroke:#000000; stroke-linecap:round; stroke-linejoin:round; stroke-width:10; stroke-opacity:1; fill:none" points="768.366,254.076 1104.02,254.076 1104.02,204.945 768.366,204.945 768.366,254.076 "/>
<g clip-path="url(#clip780)">
<text style="fill:#000000; fill-opacity:1; font-family:Century Gothic,CenturyGothic,AppleGothic,sans-serif; font-size:58px; text-anchor:start;" transform="rotate(0, 1159.96, 251.011)" x="1159.96" y="251.011">Natural (Zeroshot)</text>
</g>
<path clip-path="url(#clip780)" d="M1844.99 254.076 L2180.64 254.076 L2180.64 204.945 L1844.99 204.945 L1844.99 254.076  Z" fill="#511443" fill-rule="evenodd" fill-opacity="1"/>
<polyline clip-path="url(#clip780)" style="stroke:#000000; stroke-linecap:round; stroke-linejoin:round; stroke-width:10; stroke-opacity:1; fill:none" points="1844.99,254.076 2180.64,254.076 2180.64,204.945 1844.99,204.945 1844.99,254.076 "/>
<g clip-path="url(#clip780)">
<text style="fill:#000000; fill-opacity:1; font-family:Century Gothic,CenturyGothic,AppleGothic,sans-serif; font-size:58px; text-anchor:start;" transform="rotate(0, 2236.58, 251.011)" x="2236.58" y="251.011">Natural (Synthetic ICL)</text>
</g>
<path clip-path="url(#clip780)" d="M2921.61 254.076 L3257.26 254.076 L3257.26 204.945 L2921.61 204.945 L2921.61 254.076  Z" fill="#642068" fill-rule="evenodd" fill-opacity="1"/>
<polyline clip-path="url(#clip780)" style="stroke:#000000; stroke-linecap:round; stroke-linejoin:round; stroke-width:10; stroke-opacity:1; fill:none" points="2921.61,254.076 3257.26,254.076 3257.26,204.945 2921.61,204.945 2921.61,254.076 "/>
<g clip-path="url(#clip780)">
<text style="fill:#000000; fill-opacity:1; font-family:Century Gothic,CenturyGothic,AppleGothic,sans-serif; font-size:58px; text-anchor:start;" transform="rotate(0, 3313.2, 251.011)" x="3313.2" y="251.011">Natural (Train ICL)</text>
</g>
<path clip-path="url(#clip780)" d="M3998.23 254.076 L4333.88 254.076 L4333.88 204.945 L3998.23 204.945 L3998.23 254.076  Z" fill="#71338d" fill-rule="evenodd" fill-opacity="1"/>
<polyline clip-path="url(#clip780)" style="stroke:#000000; stroke-linecap:round; stroke-linejoin:round; stroke-width:10; stroke-opacity:1; fill:none" points="3998.23,254.076 4333.88,254.076 4333.88,204.945 3998.23,204.945 3998.23,254.076 "/>
<g clip-path="url(#clip780)">
<text style="fill:#000000; fill-opacity:1; font-family:Century Gothic,CenturyGothic,AppleGothic,sans-serif; font-size:58px; text-anchor:start;" transform="rotate(0, 4389.82, 251.011)" x="4389.82" y="251.011">Natural (Ground ICL)</text>
</g>
<polyline clip-path="url(#clip780)" style="stroke:#000000; stroke-linecap:round; stroke-linejoin:round; stroke-width:5; stroke-opacity:1; fill:none" stroke-dasharray="20, 13" points="768.366,290.925 1104.02,290.925 "/>
<g clip-path="url(#clip780)">
<text style="fill:#000000; fill-opacity:1; font-family:Century Gothic,CenturyGothic,AppleGothic,sans-serif; font-size:58px; text-anchor:start;" transform="rotate(0, 1159.96, 312.425)" x="1159.96" y="312.425">Baseline</text>
</g>
</svg>
