<?xml version="1.0" encoding="utf-8"?>
<svg xmlns="http://www.w3.org/2000/svg" xmlns:xlink="http://www.w3.org/1999/xlink" width="1400" height="800" viewBox="0 0 5600 3200">
<defs>
  <clipPath id="clip840">
    <rect x="0" y="0" width="5600" height="3200"/>
  </clipPath>
</defs>
<path clip-path="url(#clip840)" d="M0 3200 L5600 3200 L5600 0 L0 0  Z" fill="#ffffff" fill-rule="evenodd" fill-opacity="1"/>
<defs>
  <clipPath id="clip841">
    <rect x="1120" y="0" width="3921" height="3200"/>
  </clipPath>
</defs>
<path clip-path="url(#clip840)" d="M408.591 2719.86 L5411.02 2719.86 L5411.02 375.984 L408.591 375.984  Z" fill="#ffffff" fill-rule="evenodd" fill-opacity="1"/>
<defs>
  <clipPath id="clip842">
    <rect x="408" y="375" width="5003" height="2345"/>
  </clipPath>
</defs>
<polyline clip-path="url(#clip842)" style="stroke:#000000; stroke-linecap:round; stroke-linejoin:round; stroke-width:2; stroke-opacity:0.3; fill:none" points="1300.23,2719.86 1300.23,375.984 "/>
<polyline clip-path="url(#clip842)" style="stroke:#000000; stroke-linecap:round; stroke-linejoin:round; stroke-width:2; stroke-opacity:0.3; fill:none" points="2909.81,2719.86 2909.81,375.984 "/>
<polyline clip-path="url(#clip842)" style="stroke:#000000; stroke-linecap:round; stroke-linejoin:round; stroke-width:2; stroke-opacity:0.3; fill:none" points="4519.38,2719.86 4519.38,375.984 "/>
<polyline clip-path="url(#clip842)" style="stroke:#000000; stroke-linecap:round; stroke-linejoin:round; stroke-width:2; stroke-opacity:0.3; fill:none" points="1300.23,2719.86 1300.23,375.984 "/>
<polyline clip-path="url(#clip842)" style="stroke:#000000; stroke-linecap:round; stroke-linejoin:round; stroke-width:2; stroke-opacity:0.3; fill:none" points="2909.81,2719.86 2909.81,375.984 "/>
<polyline clip-path="url(#clip842)" style="stroke:#000000; stroke-linecap:round; stroke-linejoin:round; stroke-width:2; stroke-opacity:0.3; fill:none" points="4519.38,2719.86 4519.38,375.984 "/>
<polyline clip-path="url(#clip842)" style="stroke:#000000; stroke-linecap:round; stroke-linejoin:round; stroke-width:2; stroke-opacity:0.3; fill:none" points="408.591,2719.86 5411.02,2719.86 "/>
<polyline clip-path="url(#clip842)" style="stroke:#000000; stroke-linecap:round; stroke-linejoin:round; stroke-width:2; stroke-opacity:0.3; fill:none" points="408.591,2161.79 5411.02,2161.79 "/>
<polyline clip-path="url(#clip842)" style="stroke:#000000; stroke-linecap:round; stroke-linejoin:round; stroke-width:2; stroke-opacity:0.3; fill:none" points="408.591,1603.73 5411.02,1603.73 "/>
<polyline clip-path="url(#clip842)" style="stroke:#000000; stroke-linecap:round; stroke-linejoin:round; stroke-width:2; stroke-opacity:0.3; fill:none" points="408.591,1045.66 5411.02,1045.66 "/>
<polyline clip-path="url(#clip842)" style="stroke:#000000; stroke-linecap:round; stroke-linejoin:round; stroke-width:2; stroke-opacity:0.3; fill:none" points="408.591,487.597 5411.02,487.597 "/>
<polyline clip-path="url(#clip842)" style="stroke:#000000; stroke-linecap:round; stroke-linejoin:round; stroke-width:2; stroke-opacity:0.3; fill:none" points="408.591,2719.86 5411.02,2719.86 "/>
<polyline clip-path="url(#clip842)" style="stroke:#000000; stroke-linecap:round; stroke-linejoin:round; stroke-width:2; stroke-opacity:0.3; fill:none" points="408.591,2161.79 5411.02,2161.79 "/>
<polyline clip-path="url(#clip842)" style="stroke:#000000; stroke-linecap:round; stroke-linejoin:round; stroke-width:2; stroke-opacity:0.3; fill:none" points="408.591,1603.73 5411.02,1603.73 "/>
<polyline clip-path="url(#clip842)" style="stroke:#000000; stroke-linecap:round; stroke-linejoin:round; stroke-width:2; stroke-opacity:0.3; fill:none" points="408.591,1045.66 5411.02,1045.66 "/>
<polyline clip-path="url(#clip842)" style="stroke:#000000; stroke-linecap:round; stroke-linejoin:round; stroke-width:2; stroke-opacity:0.3; fill:none" points="408.591,487.597 5411.02,487.597 "/>
<polyline clip-path="url(#clip840)" style="stroke:#000000; stroke-linecap:round; stroke-linejoin:round; stroke-width:4; stroke-opacity:1; fill:none" points="408.591,2719.86 5411.02,2719.86 "/>
<polyline clip-path="url(#clip840)" style="stroke:#000000; stroke-linecap:round; stroke-linejoin:round; stroke-width:4; stroke-opacity:1; fill:none" points="408.591,375.984 5411.02,375.984 "/>
<polyline clip-path="url(#clip840)" style="stroke:#000000; stroke-linecap:round; stroke-linejoin:round; stroke-width:4; stroke-opacity:1; fill:none" points="1300.23,2719.86 1300.23,2702.5 "/>
<polyline clip-path="url(#clip840)" style="stroke:#000000; stroke-linecap:round; stroke-linejoin:round; stroke-width:4; stroke-opacity:1; fill:none" points="2909.81,2719.86 2909.81,2702.5 "/>
<polyline clip-path="url(#clip840)" style="stroke:#000000; stroke-linecap:round; stroke-linejoin:round; stroke-width:4; stroke-opacity:1; fill:none" points="4519.38,2719.86 4519.38,2702.5 "/>
<polyline clip-path="url(#clip840)" style="stroke:#000000; stroke-linecap:round; stroke-linejoin:round; stroke-width:4; stroke-opacity:1; fill:none" points="1300.23,375.984 1300.23,393.342 "/>
<polyline clip-path="url(#clip840)" style="stroke:#000000; stroke-linecap:round; stroke-linejoin:round; stroke-width:4; stroke-opacity:1; fill:none" points="2909.81,375.984 2909.81,393.342 "/>
<polyline clip-path="url(#clip840)" style="stroke:#000000; stroke-linecap:round; stroke-linejoin:round; stroke-width:4; stroke-opacity:1; fill:none" points="4519.38,375.984 4519.38,393.342 "/>
<g clip-path="url(#clip840)">
<text style="fill:#000000; fill-opacity:1; font-family:Century Gothic,CenturyGothic,AppleGothic,sans-serif; font-size:58px; text-anchor:middle;" transform="rotate(0, 1300.23, 2816.87)" x="1300.23" y="2816.87">spider-test</text>
</g>
<g clip-path="url(#clip840)">
<text style="fill:#000000; fill-opacity:1; font-family:Century Gothic,CenturyGothic,AppleGothic,sans-serif; font-size:58px; text-anchor:middle;" transform="rotate(0, 2909.81, 2816.87)" x="2909.81" y="2816.87">spider-dev</text>
</g>
<g clip-path="url(#clip840)">
<text style="fill:#000000; fill-opacity:1; font-family:Century Gothic,CenturyGothic,AppleGothic,sans-serif; font-size:58px; text-anchor:middle;" transform="rotate(0, 4519.38, 2816.87)" x="4519.38" y="2816.87">bird-dev</text>
</g>
<g clip-path="url(#clip840)">
<text style="fill:#000000; fill-opacity:1; font-family:Century Gothic,CenturyGothic,AppleGothic,sans-serif; font-size:58px; text-anchor:middle;" transform="rotate(0, 2909.81, 2918.09)" x="2909.81" y="2918.09">Benchmark</text>
</g>
<polyline clip-path="url(#clip840)" style="stroke:#000000; stroke-linecap:round; stroke-linejoin:round; stroke-width:4; stroke-opacity:1; fill:none" points="408.591,2719.86 408.591,375.984 "/>
<polyline clip-path="url(#clip840)" style="stroke:#000000; stroke-linecap:round; stroke-linejoin:round; stroke-width:4; stroke-opacity:1; fill:none" points="5411.02,2719.86 5411.02,375.984 "/>
<polyline clip-path="url(#clip840)" style="stroke:#000000; stroke-linecap:round; stroke-linejoin:round; stroke-width:4; stroke-opacity:1; fill:none" points="408.591,2719.86 427.489,2719.86 "/>
<polyline clip-path="url(#clip840)" style="stroke:#000000; stroke-linecap:round; stroke-linejoin:round; stroke-width:4; stroke-opacity:1; fill:none" points="408.591,2161.79 427.489,2161.79 "/>
<polyline clip-path="url(#clip840)" style="stroke:#000000; stroke-linecap:round; stroke-linejoin:round; stroke-width:4; stroke-opacity:1; fill:none" points="408.591,1603.73 427.489,1603.73 "/>
<polyline clip-path="url(#clip840)" style="stroke:#000000; stroke-linecap:round; stroke-linejoin:round; stroke-width:4; stroke-opacity:1; fill:none" points="408.591,1045.66 427.489,1045.66 "/>
<polyline clip-path="url(#clip840)" style="stroke:#000000; stroke-linecap:round; stroke-linejoin:round; stroke-width:4; stroke-opacity:1; fill:none" points="408.591,487.597 427.489,487.597 "/>
<polyline clip-path="url(#clip840)" style="stroke:#000000; stroke-linecap:round; stroke-linejoin:round; stroke-width:4; stroke-opacity:1; fill:none" points="5411.02,2719.86 5392.13,2719.86 "/>
<polyline clip-path="url(#clip840)" style="stroke:#000000; stroke-linecap:round; stroke-linejoin:round; stroke-width:4; stroke-opacity:1; fill:none" points="5411.02,2161.79 5392.13,2161.79 "/>
<polyline clip-path="url(#clip840)" style="stroke:#000000; stroke-linecap:round; stroke-linejoin:round; stroke-width:4; stroke-opacity:1; fill:none" points="5411.02,1603.73 5392.13,1603.73 "/>
<polyline clip-path="url(#clip840)" style="stroke:#000000; stroke-linecap:round; stroke-linejoin:round; stroke-width:4; stroke-opacity:1; fill:none" points="5411.02,1045.66 5392.13,1045.66 "/>
<polyline clip-path="url(#clip840)" style="stroke:#000000; stroke-linecap:round; stroke-linejoin:round; stroke-width:4; stroke-opacity:1; fill:none" points="5411.02,487.597 5392.13,487.597 "/>
<g clip-path="url(#clip840)">
<text style="fill:#000000; fill-opacity:1; font-family:Century Gothic,CenturyGothic,AppleGothic,sans-serif; font-size:58px; text-anchor:middle;" transform="rotate(0, 308.42, 2741.36)" x="308.42" y="2741.36">0</text>
</g>
<g clip-path="url(#clip840)">
<text style="fill:#000000; fill-opacity:1; font-family:Century Gothic,CenturyGothic,AppleGothic,sans-serif; font-size:58px; text-anchor:middle;" transform="rotate(0, 292.249, 2183.29)" x="292.249" y="2183.29">25</text>
</g>
<g clip-path="url(#clip840)">
<text style="fill:#000000; fill-opacity:1; font-family:Century Gothic,CenturyGothic,AppleGothic,sans-serif; font-size:58px; text-anchor:middle;" transform="rotate(0, 292.249, 1625.23)" x="292.249" y="1625.23">50</text>
</g>
<g clip-path="url(#clip840)">
<text style="fill:#000000; fill-opacity:1; font-family:Century Gothic,CenturyGothic,AppleGothic,sans-serif; font-size:58px; text-anchor:middle;" transform="rotate(0, 292.249, 1067.16)" x="292.249" y="1067.16">75</text>
</g>
<g clip-path="url(#clip840)">
<text style="fill:#000000; fill-opacity:1; font-family:Century Gothic,CenturyGothic,AppleGothic,sans-serif; font-size:58px; text-anchor:middle;" transform="rotate(0, 276.079, 509.097)" x="276.079" y="509.097">100</text>
</g>
<g clip-path="url(#clip840)">
<text style="fill:#000000; fill-opacity:1; font-family:Century Gothic,CenturyGothic,AppleGothic,sans-serif; font-size:58px; text-anchor:middle;" transform="rotate(-90, 133.752, 1547.92)" x="133.752" y="1547.92">Execution Accuracy (%)</text>
</g>
<g clip-path="url(#clip840)">
<text style="fill:#000000; fill-opacity:1; font-family:Century Gothic,CenturyGothic,AppleGothic,sans-serif; font-size:70px; text-anchor:middle;" transform="rotate(0, 2909.81, 62.4)" x="2909.81" y="62.4">Performance Comparison: Natural vs SOTA</text>
</g>
<path clip-path="url(#clip842)" d="M656.401 999.231 L656.401 2719.86 L978.316 2719.86 L978.316 999.231 L656.401 999.231 L656.401 999.231  Z" fill="#360e24" fill-rule="evenodd" fill-opacity="1"/>
<polyline clip-path="url(#clip842)" style="stroke:#000000; stroke-linecap:round; stroke-linejoin:round; stroke-width:8; stroke-opacity:1; fill:none" points="656.401,999.231 656.401,2719.86 978.316,2719.86 978.316,999.231 656.401,999.231 "/>
<path clip-path="url(#clip842)" d="M2265.98 988.517 L2265.98 2719.86 L2587.89 2719.86 L2587.89 988.517 L2265.98 988.517 L2265.98 988.517  Z" fill="#360e24" fill-rule="evenodd" fill-opacity="1"/>
<polyline clip-path="url(#clip842)" style="stroke:#000000; stroke-linecap:round; stroke-linejoin:round; stroke-width:8; stroke-opacity:1; fill:none" points="2265.98,988.517 2265.98,2719.86 2587.89,2719.86 2587.89,988.517 2265.98,988.517 "/>
<path clip-path="url(#clip842)" d="M3875.55 1894.82 L3875.55 2719.86 L4197.47 2719.86 L4197.47 1894.82 L3875.55 1894.82 L3875.55 1894.82  Z" fill="#360e24" fill-rule="evenodd" fill-opacity="1"/>
<polyline clip-path="url(#clip842)" style="stroke:#000000; stroke-linecap:round; stroke-linejoin:round; stroke-width:8; stroke-opacity:1; fill:none" points="3875.55,1894.82 3875.55,2719.86 4197.47,2719.86 4197.47,1894.82 3875.55,1894.82 "/>
<circle clip-path="url(#clip842)" style="fill:#360e24; stroke:none; fill-opacity:0" cx="817.359" cy="999.231" r="2"/>
<circle clip-path="url(#clip842)" style="fill:#360e24; stroke:none; fill-opacity:0" cx="2426.93" cy="988.517" r="2"/>
<circle clip-path="url(#clip842)" style="fill:#360e24; stroke:none; fill-opacity:0" cx="4036.51" cy="1894.82" r="2"/>
<path clip-path="url(#clip842)" d="M978.316 869.983 L978.316 2719.86 L1300.23 2719.86 L1300.23 869.983 L978.316 869.983 L978.316 869.983  Z" fill="#511443" fill-rule="evenodd" fill-opacity="1"/>
<polyline clip-path="url(#clip842)" style="stroke:#000000; stroke-linecap:round; stroke-linejoin:round; stroke-width:8; stroke-opacity:1; fill:none" points="978.316,869.983 978.316,2719.86 1300.23,2719.86 1300.23,869.983 978.316,869.983 "/>
<path clip-path="url(#clip842)" d="M2587.89 838.732 L2587.89 2719.86 L2909.81 2719.86 L2909.81 838.732 L2587.89 838.732 L2587.89 838.732  Z" fill="#511443" fill-rule="evenodd" fill-opacity="1"/>
<polyline clip-path="url(#clip842)" style="stroke:#000000; stroke-linecap:round; stroke-linejoin:round; stroke-width:8; stroke-opacity:1; fill:none" points="2587.89,838.732 2587.89,2719.86 2909.81,2719.86 2909.81,838.732 2587.89,838.732 "/>
<path clip-path="url(#clip842)" d="M4197.47 1443.68 L4197.47 2719.86 L4519.38 2719.86 L4519.38 1443.68 L4197.47 1443.68 L4197.47 1443.68  Z" fill="#511443" fill-rule="evenodd" fill-opacity="1"/>
<polyline clip-path="url(#clip842)" style="stroke:#000000; stroke-linecap:round; stroke-linejoin:round; stroke-width:8; stroke-opacity:1; fill:none" points="4197.47,1443.68 4197.47,2719.86 4519.38,2719.86 4519.38,1443.68 4197.47,1443.68 "/>
<circle clip-path="url(#clip842)" style="fill:#511443; stroke:none; fill-opacity:0" cx="1139.27" cy="869.983" r="2"/>
<circle clip-path="url(#clip842)" style="fill:#511443; stroke:none; fill-opacity:0" cx="2748.85" cy="838.732" r="2"/>
<circle clip-path="url(#clip842)" style="fill:#511443; stroke:none; fill-opacity:0" cx="4358.43" cy="1443.68" r="2"/>
<defs>
  <pattern id="pattern1" patternUnits="userSpaceOnUse" x="0" y="0" width="32" height="32">
<g transform="scale(4)"><path d="M-4,4 l8,-8 M4,12 l8,-8 M-4,12 l16,-16" style="stroke:#642068; stroke-width:1; stroke-opacity:1"/></g></pattern>
</defs>
<path clip-path="url(#clip842)" d="M1300.23 715.288 L1300.23 2719.86 L1622.15 2719.86 L1622.15 715.288 L1300.23 715.288 L1300.23 715.288  Z" fill="url(#pattern1)"/>
<polyline clip-path="url(#clip842)" style="stroke:#000000; stroke-linecap:round; stroke-linejoin:round; stroke-width:8; stroke-opacity:1; fill:none" points="1300.23,715.288 1300.23,2719.86 1622.15,2719.86 1622.15,715.288 1300.23,715.288 "/>
<defs>
  <pattern id="pattern2" patternUnits="userSpaceOnUse" x="0" y="0" width="32" height="32">
<g transform="scale(4)"><path d="M-4,4 l8,-8 M4,12 l8,-8 M-4,12 l16,-16" style="stroke:#642068; stroke-width:1; stroke-opacity:1"/></g></pattern>
</defs>
<path clip-path="url(#clip842)" d="M2909.81 898.333 L2909.81 2719.86 L3231.72 2719.86 L3231.72 898.333 L2909.81 898.333 L2909.81 898.333  Z" fill="url(#pattern2)"/>
<polyline clip-path="url(#clip842)" style="stroke:#000000; stroke-linecap:round; stroke-linejoin:round; stroke-width:8; stroke-opacity:1; fill:none" points="2909.81,898.333 2909.81,2719.86 3231.72,2719.86 3231.72,898.333 2909.81,898.333 "/>
<defs>
  <pattern id="pattern3" patternUnits="userSpaceOnUse" x="0" y="0" width="32" height="32">
<g transform="scale(4)"><path d="M-4,4 l8,-8 M4,12 l8,-8 M-4,12 l16,-16" style="stroke:#642068; stroke-width:1; stroke-opacity:1"/></g></pattern>
</defs>
<path clip-path="url(#clip842)" d="M4519.38 1244.33 L4519.38 2719.86 L4841.3 2719.86 L4841.3 1244.33 L4519.38 1244.33 L4519.38 1244.33  Z" fill="url(#pattern3)"/>
<polyline clip-path="url(#clip842)" style="stroke:#000000; stroke-linecap:round; stroke-linejoin:round; stroke-width:8; stroke-opacity:1; fill:none" points="4519.38,1244.33 4519.38,2719.86 4841.3,2719.86 4841.3,1244.33 4519.38,1244.33 "/>
<circle clip-path="url(#clip842)" style="fill:#642068; stroke:none; fill-opacity:0" cx="1461.19" cy="715.288" r="2"/>
<circle clip-path="url(#clip842)" style="fill:#642068; stroke:none; fill-opacity:0" cx="3070.76" cy="898.333" r="2"/>
<circle clip-path="url(#clip842)" style="fill:#642068; stroke:none; fill-opacity:0" cx="4680.34" cy="1244.33" r="2"/>
<defs>
  <pattern id="pattern4" patternUnits="userSpaceOnUse" x="0" y="0" width="32" height="32">
<g transform="scale(4)"><path d="M-4,4 l8,-8 M4,12 l8,-8 M-4,12 l16,-16" style="stroke:#71338d; stroke-width:1; stroke-opacity:1"/></g></pattern>
</defs>
<path clip-path="url(#clip842)" d="M1622.15 824.668 L1622.15 2719.86 L1944.06 2719.86 L1944.06 824.668 L1622.15 824.668 L1622.15 824.668  Z" fill="url(#pattern4)"/>
<polyline clip-path="url(#clip842)" style="stroke:#000000; stroke-linecap:round; stroke-linejoin:round; stroke-width:8; stroke-opacity:1; fill:none" points="1622.15,824.668 1622.15,2719.86 1944.06,2719.86 1944.06,824.668 1622.15,824.668 "/>
<defs>
  <pattern id="pattern5" patternUnits="userSpaceOnUse" x="0" y="0" width="32" height="32">
<g transform="scale(4)"><path d="M-4,4 l8,-8 M4,12 l8,-8 M-4,12 l16,-16" style="stroke:#71338d; stroke-width:1; stroke-opacity:1"/></g></pattern>
</defs>
<path clip-path="url(#clip842)" d="M3231.72 1141.65 L3231.72 2719.86 L3553.64 2719.86 L3553.64 1141.65 L3231.72 1141.65 L3231.72 1141.65  Z" fill="url(#pattern5)"/>
<polyline clip-path="url(#clip842)" style="stroke:#000000; stroke-linecap:round; stroke-linejoin:round; stroke-width:8; stroke-opacity:1; fill:none" points="3231.72,1141.65 3231.72,2719.86 3553.64,2719.86 3553.64,1141.65 3231.72,1141.65 "/>
<defs>
  <pattern id="pattern6" patternUnits="userSpaceOnUse" x="0" y="0" width="32" height="32">
<g transform="scale(4)"><path d="M-4,4 l8,-8 M4,12 l8,-8 M-4,12 l16,-16" style="stroke:#71338d; stroke-width:1; stroke-opacity:1"/></g></pattern>
</defs>
<path clip-path="url(#clip842)" d="M4841.3 1291.21 L4841.3 2719.86 L5163.21 2719.86 L5163.21 1291.21 L4841.3 1291.21 L4841.3 1291.21  Z" fill="url(#pattern6)"/>
<polyline clip-path="url(#clip842)" style="stroke:#000000; stroke-linecap:round; stroke-linejoin:round; stroke-width:8; stroke-opacity:1; fill:none" points="4841.3,1291.21 4841.3,2719.86 5163.21,2719.86 5163.21,1291.21 4841.3,1291.21 "/>
<circle clip-path="url(#clip842)" style="fill:#71338d; stroke:none; fill-opacity:0" cx="1783.1" cy="824.668" r="2"/>
<circle clip-path="url(#clip842)" style="fill:#71338d; stroke:none; fill-opacity:0" cx="3392.68" cy="1141.65" r="2"/>
<circle clip-path="url(#clip842)" style="fill:#71338d; stroke:none; fill-opacity:0" cx="5002.26" cy="1291.21" r="2"/>
<path clip-path="url(#clip840)" d="M816.02 290.925 L5003.59 290.925 L5003.59 168.097 L816.02 168.097  Z" fill="#ffffff" fill-rule="evenodd" fill-opacity="1"/>
<polyline clip-path="url(#clip840)" style="stroke:#000000; stroke-linecap:round; stroke-linejoin:round; stroke-width:4; stroke-opacity:1; fill:none" points="816.02,290.925 5003.59,290.925 5003.59,168.097 816.02,168.097 816.02,290.925 "/>
<path clip-path="url(#clip840)" d="M871.603 254.076 L1205.1 254.076 L1205.1 204.945 L871.603 204.945 L871.603 254.076  Z" fill="#360e24" fill-rule="evenodd" fill-opacity="1"/>
<polyline clip-path="url(#clip840)" style="stroke:#000000; stroke-linecap:round; stroke-linejoin:round; stroke-width:10; stroke-opacity:1; fill:none" points="871.603,254.076 1205.1,254.076 1205.1,204.945 871.603,204.945 871.603,254.076 "/>
<g clip-path="url(#clip840)">
<text style="fill:#000000; fill-opacity:1; font-family:Century Gothic,CenturyGothic,AppleGothic,sans-serif; font-size:58px; text-anchor:start;" transform="rotate(0, 1260.68, 251.011)" x="1260.68" y="251.011">Natural (Baseline)</text>
</g>
<path clip-path="url(#clip840)" d="M1904.6 254.076 L2238.1 254.076 L2238.1 204.945 L1904.6 204.945 L1904.6 254.076  Z" fill="#511443" fill-rule="evenodd" fill-opacity="1"/>
<polyline clip-path="url(#clip840)" style="stroke:#000000; stroke-linecap:round; stroke-linejoin:round; stroke-width:10; stroke-opacity:1; fill:none" points="1904.6,254.076 2238.1,254.076 2238.1,204.945 1904.6,204.945 1904.6,254.076 "/>
<g clip-path="url(#clip840)">
<text style="fill:#000000; fill-opacity:1; font-family:Century Gothic,CenturyGothic,AppleGothic,sans-serif; font-size:58px; text-anchor:start;" transform="rotate(0, 2293.68, 251.011)" x="2293.68" y="251.011">Natural (Ground ICL)</text>
</g>
<defs>
  <pattern id="pattern7" patternUnits="userSpaceOnUse" x="0" y="0" width="32" height="32">
<g transform="scale(4)"><path d="M-4,4 l8,-8 M4,12 l8,-8 M-4,12 l16,-16" style="stroke:#642068; stroke-width:1; stroke-opacity:1"/></g></pattern>
</defs>
<path clip-path="url(#clip840)" d="M2937.6 254.076 L3271.09 254.076 L3271.09 204.945 L2937.6 204.945 L2937.6 254.076  Z" fill="url(#pattern7)"/>
<polyline clip-path="url(#clip840)" style="stroke:#000000; stroke-linecap:round; stroke-linejoin:round; stroke-width:10; stroke-opacity:1; fill:none" points="2937.6,254.076 3271.09,254.076 3271.09,204.945 2937.6,204.945 2937.6,254.076 "/>
<g clip-path="url(#clip840)">
<text style="fill:#000000; fill-opacity:1; font-family:Century Gothic,CenturyGothic,AppleGothic,sans-serif; font-size:58px; text-anchor:start;" transform="rotate(0, 3326.68, 251.011)" x="3326.68" y="251.011">OmniSQL-7B*</text>
</g>
<defs>
  <pattern id="pattern8" patternUnits="userSpaceOnUse" x="0" y="0" width="32" height="32">
<g transform="scale(4)"><path d="M-4,4 l8,-8 M4,12 l8,-8 M-4,12 l16,-16" style="stroke:#71338d; stroke-width:1; stroke-opacity:1"/></g></pattern>
</defs>
<path clip-path="url(#clip840)" d="M3970.6 254.076 L4304.09 254.076 L4304.09 204.945 L3970.6 204.945 L3970.6 254.076  Z" fill="url(#pattern8)"/>
<polyline clip-path="url(#clip840)" style="stroke:#000000; stroke-linecap:round; stroke-linejoin:round; stroke-width:10; stroke-opacity:1; fill:none" points="3970.6,254.076 4304.09,254.076 4304.09,204.945 3970.6,204.945 3970.6,254.076 "/>
<g clip-path="url(#clip840)">
<text style="fill:#000000; fill-opacity:1; font-family:Century Gothic,CenturyGothic,AppleGothic,sans-serif; font-size:58px; text-anchor:start;" transform="rotate(0, 4359.67, 251.011)" x="4359.67" y="251.011">GPT-4o*</text>
</g>
</svg>
