<?xml version="1.0" encoding="utf-8" standalone="no"?>
<!DOCTYPE svg PUBLIC "-//W3C//DTD SVG 1.1//EN"
  "http://www.w3.org/Graphics/SVG/1.1/DTD/svg11.dtd">
<svg xmlns:xlink="http://www.w3.org/1999/xlink" width="1008pt" height="576pt" viewBox="0 0 1008 576" xmlns="http://www.w3.org/2000/svg" version="1.1">
 <metadata>
  <rdf:RDF xmlns:dc="http://purl.org/dc/elements/1.1/" xmlns:cc="http://creativecommons.org/ns#" xmlns:rdf="http://www.w3.org/1999/02/22-rdf-syntax-ns#">
   <cc:Work>
    <dc:type rdf:resource="http://purl.org/dc/dcmitype/StillImage"/>
    <dc:date>1980-01-01T00:00:00+00:00</dc:date>
    <dc:format>image/svg+xml</dc:format>
    <dc:creator>
     <cc:Agent>
      <dc:title>Matplotlib v3.10.5, https://matplotlib.org/</dc:title>
     </cc:Agent>
    </dc:creator>
   </cc:Work>
  </rdf:RDF>
 </metadata>
 <defs>
  <style type="text/css">*{stroke-linejoin: round; stroke-linecap: butt}</style>
 </defs>
 <g id="figure_1">
  <g id="patch_1">
   <path d="M 0 576 
L 1008 576 
L 1008 0 
L 0 0 
z
" style="fill: #ffffff"/>
  </g>
  <g id="axes_1">
   <g id="patch_2">
    <path d="M 89.088866 496.665543 
L 979.653543 496.665543 
L 979.653543 69.482457 
L 89.088866 69.482457 
z
" style="fill: #ffffff"/>
   </g>
   <g id="matplotlib.axis_1">
    <g id="xtick_1">
     <g id="line2d_1">
      <path d="M 247.4329 496.665543 
L 247.4329 69.482457 
" clip-path="url(#p213d8e87f8)" style="fill: none; stroke: #000000; stroke-opacity: 0.3; stroke-width: 0.5; stroke-linecap: square"/>
     </g>
     <g id="line2d_2">
      <defs>
       <path id="m8e8413981d" d="M 0 0 
L 0 -2.5 
" style="stroke: #000000; stroke-width: 0.5"/>
      </defs>
      <g>
       <use xlink:href="#m8e8413981d" x="247.4329" y="496.665543" style="stroke: #000000; stroke-width: 0.5"/>
      </g>
     </g>
     <g id="line2d_3">
      <defs>
       <path id="m130e4b0004" d="M 0 0 
L 0 2.5 
" style="stroke: #000000; stroke-width: 0.5"/>
      </defs>
      <g>
       <use xlink:href="#m130e4b0004" x="247.4329" y="69.482457" style="stroke: #000000; stroke-width: 0.5"/>
      </g>
     </g>
     <g id="text_1">
      <!-- spider-test -->
      <g transform="translate(214.4329 507.445231) scale(0.1 -0.1)">
       <defs>
        <path id="BerkeleyMono-Regular-73" d="M 1926 -64 
Q 1389 -64 1094 25 
Q 800 115 678 332 
Q 557 550 557 947 
L 1101 947 
Q 1114 730 1197 618 
Q 1280 506 1462 458 
Q 1645 410 1978 410 
Q 2272 410 2432 454 
Q 2592 499 2659 601 
Q 2726 704 2726 896 
Q 2726 1069 2640 1181 
Q 2554 1293 2349 1373 
Q 2144 1453 1760 1530 
Q 1306 1619 1059 1734 
Q 813 1850 707 2026 
Q 602 2202 602 2483 
Q 602 2854 720 3052 
Q 838 3251 1116 3337 
Q 1395 3424 1914 3424 
Q 2400 3424 2662 3347 
Q 2925 3270 3046 3081 
Q 3168 2893 3187 2547 
L 2656 2547 
Q 2624 2784 2464 2867 
Q 2304 2950 1907 2950 
Q 1600 2950 1433 2908 
Q 1267 2867 1196 2764 
Q 1126 2662 1126 2477 
Q 1126 2368 1219 2285 
Q 1312 2202 1529 2122 
Q 1747 2042 2150 1939 
Q 2592 1830 2829 1702 
Q 3066 1574 3162 1388 
Q 3258 1203 3258 909 
Q 3258 525 3136 317 
Q 3014 109 2732 22 
Q 2451 -64 1926 -64 
z
" transform="scale(0.015625)"/>
        <path id="BerkeleyMono-Regular-70" d="M 582 3341 
L 1114 3341 
L 1114 2995 
L 1158 2995 
Q 1344 3245 1533 3334 
Q 1722 3424 2054 3424 
Q 2579 3424 2864 3267 
Q 3149 3110 3270 2739 
Q 3392 2368 3392 1677 
Q 3392 992 3273 621 
Q 3155 250 2873 93 
Q 2592 -64 2067 -64 
Q 1696 -64 1507 25 
Q 1318 115 1165 365 
L 1114 365 
L 1114 -1376 
L 582 -1376 
L 582 3341 
z
M 1101 1677 
Q 1101 1178 1177 909 
Q 1254 640 1430 528 
Q 1606 416 1939 416 
Q 2298 416 2490 528 
Q 2682 640 2765 912 
Q 2848 1184 2848 1677 
Q 2848 2176 2765 2445 
Q 2682 2714 2490 2829 
Q 2298 2944 1939 2944 
Q 1606 2944 1430 2832 
Q 1254 2720 1177 2448 
Q 1101 2176 1101 1677 
z
" transform="scale(0.015625)"/>
        <path id="BerkeleyMono-Regular-69" d="M 1600 4659 
L 2336 4659 
L 2336 3930 
L 1600 3930 
L 1600 4659 
z
M 723 474 
L 1805 474 
L 1805 2874 
L 787 2874 
L 787 3341 
L 2330 3341 
L 2330 474 
L 3366 474 
L 3366 6 
L 723 6 
L 723 474 
z
" transform="scale(0.015625)"/>
        <path id="BerkeleyMono-Regular-64" d="M 1766 -64 
Q 1242 -64 957 93 
Q 672 250 550 621 
Q 429 992 429 1683 
Q 429 2368 547 2736 
Q 666 3104 947 3261 
Q 1229 3418 1747 3418 
Q 2125 3418 2317 3328 
Q 2509 3238 2656 2989 
L 2707 2989 
L 2707 4659 
L 3238 4659 
L 3238 0 
L 2707 0 
L 2707 365 
L 2662 365 
Q 2483 115 2294 25 
Q 2106 -64 1766 -64 
z
M 973 1683 
Q 973 1184 1056 915 
Q 1139 646 1331 531 
Q 1523 416 1882 416 
Q 2214 416 2390 528 
Q 2566 640 2643 912 
Q 2720 1184 2720 1683 
Q 2720 2176 2643 2445 
Q 2566 2714 2390 2826 
Q 2214 2938 1882 2938 
Q 1523 2938 1331 2826 
Q 1139 2714 1056 2445 
Q 973 2176 973 1683 
z
" transform="scale(0.015625)"/>
        <path id="BerkeleyMono-Regular-65" d="M 1965 -64 
Q 1389 -64 1085 89 
Q 781 243 656 614 
Q 531 986 531 1690 
Q 531 2374 659 2745 
Q 787 3117 1084 3267 
Q 1382 3418 1914 3418 
Q 2490 3418 2781 3248 
Q 3072 3078 3181 2668 
Q 3290 2259 3277 1459 
L 1069 1459 
Q 1088 1037 1171 813 
Q 1254 589 1436 499 
Q 1619 410 1958 410 
Q 2278 410 2425 502 
Q 2573 595 2656 864 
L 3213 864 
Q 3142 493 3011 294 
Q 2880 96 2637 16 
Q 2394 -64 1965 -64 
z
M 2765 1926 
Q 2752 2336 2672 2550 
Q 2592 2765 2416 2854 
Q 2240 2944 1914 2944 
Q 1606 2944 1436 2854 
Q 1267 2765 1187 2550 
Q 1107 2336 1075 1926 
L 2765 1926 
z
" transform="scale(0.015625)"/>
        <path id="BerkeleyMono-Regular-72" d="M 1069 3341 
L 1581 3341 
L 1562 2554 
L 1613 2554 
Q 1792 2963 1897 3120 
Q 2003 3277 2124 3315 
Q 2246 3354 2541 3360 
L 2822 3366 
Q 2982 3366 3174 3354 
L 3174 2848 
Q 3027 2854 2790 2854 
Q 2554 2854 2406 2835 
Q 2221 2803 2029 2633 
Q 1837 2464 1712 2211 
Q 1587 1958 1587 1690 
L 1587 0 
L 1069 0 
L 1069 3341 
z
" transform="scale(0.015625)"/>
        <path id="BerkeleyMono-Regular-2d" d="M 826 2163 
L 3014 2163 
L 3014 1651 
L 826 1651 
L 826 2163 
z
" transform="scale(0.015625)"/>
        <path id="BerkeleyMono-Regular-74" d="M 2317 -70 
Q 1907 -70 1702 38 
Q 1498 147 1427 371 
Q 1357 595 1357 1005 
L 1357 2867 
L 493 2867 
L 621 3341 
L 1382 3341 
L 1382 4090 
L 1882 4301 
L 1882 3341 
L 3053 3341 
L 3053 2867 
L 1882 2867 
L 1882 1030 
Q 1882 806 1930 678 
Q 1978 550 2115 483 
Q 2253 416 2528 416 
Q 2771 416 3194 474 
L 3194 0 
Q 2630 -70 2317 -70 
z
" transform="scale(0.015625)"/>
       </defs>
       <use xlink:href="#BerkeleyMono-Regular-73"/>
       <use xlink:href="#BerkeleyMono-Regular-70" transform="translate(59.999985 0)"/>
       <use xlink:href="#BerkeleyMono-Regular-69" transform="translate(119.999969 0)"/>
       <use xlink:href="#BerkeleyMono-Regular-64" transform="translate(179.999954 0)"/>
       <use xlink:href="#BerkeleyMono-Regular-65" transform="translate(239.999939 0)"/>
       <use xlink:href="#BerkeleyMono-Regular-72" transform="translate(299.999924 0)"/>
       <use xlink:href="#BerkeleyMono-Regular-2d" transform="translate(359.999908 0)"/>
       <use xlink:href="#BerkeleyMono-Regular-74" transform="translate(419.999893 0)"/>
       <use xlink:href="#BerkeleyMono-Regular-65" transform="translate(479.999878 0)"/>
       <use xlink:href="#BerkeleyMono-Regular-73" transform="translate(539.999863 0)"/>
       <use xlink:href="#BerkeleyMono-Regular-74" transform="translate(599.999847 0)"/>
      </g>
     </g>
    </g>
    <g id="xtick_2">
     <g id="line2d_4">
      <path d="M 534.371205 496.665543 
L 534.371205 69.482457 
" clip-path="url(#p213d8e87f8)" style="fill: none; stroke: #000000; stroke-opacity: 0.3; stroke-width: 0.5; stroke-linecap: square"/>
     </g>
     <g id="line2d_5">
      <g>
       <use xlink:href="#m8e8413981d" x="534.371205" y="496.665543" style="stroke: #000000; stroke-width: 0.5"/>
      </g>
     </g>
     <g id="line2d_6">
      <g>
       <use xlink:href="#m130e4b0004" x="534.371205" y="69.482457" style="stroke: #000000; stroke-width: 0.5"/>
      </g>
     </g>
     <g id="text_2">
      <!-- spider-dev -->
      <g transform="translate(504.371205 507.445231) scale(0.1 -0.1)">
       <defs>
        <path id="BerkeleyMono-Regular-76" d="M 371 3341 
L 934 3341 
L 1894 621 
L 1939 621 
L 2899 3341 
L 3462 3341 
L 2202 0 
L 1632 0 
L 371 3341 
z
" transform="scale(0.015625)"/>
       </defs>
       <use xlink:href="#BerkeleyMono-Regular-73"/>
       <use xlink:href="#BerkeleyMono-Regular-70" transform="translate(59.999985 0)"/>
       <use xlink:href="#BerkeleyMono-Regular-69" transform="translate(119.999969 0)"/>
       <use xlink:href="#BerkeleyMono-Regular-64" transform="translate(179.999954 0)"/>
       <use xlink:href="#BerkeleyMono-Regular-65" transform="translate(239.999939 0)"/>
       <use xlink:href="#BerkeleyMono-Regular-72" transform="translate(299.999924 0)"/>
       <use xlink:href="#BerkeleyMono-Regular-2d" transform="translate(359.999908 0)"/>
       <use xlink:href="#BerkeleyMono-Regular-64" transform="translate(419.999893 0)"/>
       <use xlink:href="#BerkeleyMono-Regular-65" transform="translate(479.999878 0)"/>
       <use xlink:href="#BerkeleyMono-Regular-76" transform="translate(539.999863 0)"/>
      </g>
     </g>
    </g>
    <g id="xtick_3">
     <g id="line2d_7">
      <path d="M 821.309509 496.665543 
L 821.309509 69.482457 
" clip-path="url(#p213d8e87f8)" style="fill: none; stroke: #000000; stroke-opacity: 0.3; stroke-width: 0.5; stroke-linecap: square"/>
     </g>
     <g id="line2d_8">
      <g>
       <use xlink:href="#m8e8413981d" x="821.309509" y="496.665543" style="stroke: #000000; stroke-width: 0.5"/>
      </g>
     </g>
     <g id="line2d_9">
      <g>
       <use xlink:href="#m130e4b0004" x="821.309509" y="69.482457" style="stroke: #000000; stroke-width: 0.5"/>
      </g>
     </g>
     <g id="text_3">
      <!-- bird-dev -->
      <g transform="translate(797.309509 507.445231) scale(0.1 -0.1)">
       <defs>
        <path id="BerkeleyMono-Regular-62" d="M 2061 -64 
Q 1728 -64 1539 25 
Q 1350 115 1165 365 
L 1120 365 
L 1120 0 
L 589 0 
L 595 4659 
L 1126 4659 
L 1120 2989 
L 1171 2989 
Q 1325 3238 1513 3328 
Q 1702 3418 2080 3418 
Q 2598 3418 2880 3261 
Q 3162 3104 3280 2736 
Q 3398 2368 3398 1683 
Q 3398 992 3276 621 
Q 3155 250 2870 93 
Q 2586 -64 2061 -64 
z
M 1107 1683 
Q 1107 1184 1184 912 
Q 1261 640 1437 528 
Q 1613 416 1946 416 
Q 2304 416 2496 531 
Q 2688 646 2771 915 
Q 2854 1184 2854 1683 
Q 2854 2176 2771 2445 
Q 2688 2714 2496 2826 
Q 2304 2938 1946 2938 
Q 1613 2938 1437 2826 
Q 1261 2714 1184 2445 
Q 1107 2176 1107 1683 
z
" transform="scale(0.015625)"/>
       </defs>
       <use xlink:href="#BerkeleyMono-Regular-62"/>
       <use xlink:href="#BerkeleyMono-Regular-69" transform="translate(59.999985 0)"/>
       <use xlink:href="#BerkeleyMono-Regular-72" transform="translate(119.999969 0)"/>
       <use xlink:href="#BerkeleyMono-Regular-64" transform="translate(179.999954 0)"/>
       <use xlink:href="#BerkeleyMono-Regular-2d" transform="translate(239.999939 0)"/>
       <use xlink:href="#BerkeleyMono-Regular-64" transform="translate(299.999924 0)"/>
       <use xlink:href="#BerkeleyMono-Regular-65" transform="translate(359.999908 0)"/>
       <use xlink:href="#BerkeleyMono-Regular-76" transform="translate(419.999893 0)"/>
      </g>
     </g>
    </g>
    <g id="text_4">
     <!--  -->
     <g transform="translate(534.371205 520.874918) scale(0.1 -0.1)"/>
     <!-- Benchmark -->
     <g transform="translate(507.371205 531.760543) scale(0.1 -0.1)">
      <defs>
       <path id="BerkeleyMono-Regular-42" d="M 1664 -51 
Q 1139 -51 576 0 
L 576 4352 
Q 1203 4384 1446 4384 
Q 2138 4384 2512 4281 
Q 2886 4179 3043 3932 
Q 3200 3686 3200 3232 
Q 3200 2925 3145 2742 
Q 3091 2560 2960 2461 
Q 2829 2362 2592 2304 
L 2592 2266 
Q 2899 2176 3068 2048 
Q 3238 1920 3308 1712 
Q 3379 1504 3379 1152 
Q 3379 678 3225 422 
Q 3072 166 2707 57 
Q 2342 -51 1664 -51 
z
M 1114 467 
Q 1363 435 1651 435 
Q 2125 435 2371 499 
Q 2618 563 2723 729 
Q 2829 896 2829 1216 
Q 2829 1530 2749 1699 
Q 2669 1869 2480 1939 
Q 2291 2010 1939 2010 
L 1114 2010 
L 1114 467 
z
M 2093 2483 
Q 2317 2496 2438 2560 
Q 2560 2624 2611 2765 
Q 2662 2906 2662 3168 
Q 2662 3430 2598 3577 
Q 2534 3725 2384 3795 
Q 2234 3866 1952 3885 
Q 1702 3904 1491 3904 
Q 1261 3904 1114 3898 
L 1114 2483 
L 2093 2483 
z
" transform="scale(0.015625)"/>
       <path id="BerkeleyMono-Regular-6e" d="M 582 3341 
L 1120 3341 
L 1120 2854 
L 1165 2854 
Q 1306 3187 1520 3305 
Q 1734 3424 2170 3424 
Q 2592 3424 2822 3309 
Q 3053 3194 3152 2922 
Q 3251 2650 3251 2150 
L 3251 0 
L 2720 0 
L 2720 2163 
Q 2720 2464 2653 2630 
Q 2586 2797 2435 2864 
Q 2285 2931 2003 2931 
Q 1658 2931 1469 2822 
Q 1280 2714 1200 2461 
Q 1120 2208 1120 1741 
L 1120 0 
L 582 0 
L 582 3341 
z
" transform="scale(0.015625)"/>
       <path id="BerkeleyMono-Regular-63" d="M 2022 -64 
Q 1453 -64 1142 93 
Q 832 250 701 618 
Q 570 986 570 1670 
Q 570 2362 701 2736 
Q 832 3110 1139 3267 
Q 1446 3424 2010 3424 
Q 2483 3424 2745 3328 
Q 3008 3232 3129 3005 
Q 3251 2778 3277 2362 
L 2746 2362 
Q 2682 2694 2534 2816 
Q 2387 2938 2048 2938 
Q 1677 2938 1478 2822 
Q 1280 2707 1193 2435 
Q 1107 2163 1107 1658 
Q 1107 1171 1193 908 
Q 1280 646 1481 534 
Q 1683 422 2054 422 
Q 2387 422 2531 528 
Q 2675 634 2746 928 
L 3277 928 
Q 3251 538 3129 326 
Q 3008 115 2749 25 
Q 2490 -64 2022 -64 
z
" transform="scale(0.015625)"/>
       <path id="BerkeleyMono-Regular-68" d="M 582 4659 
L 1120 4659 
L 1120 2848 
L 1165 2848 
Q 1312 3181 1520 3299 
Q 1728 3418 2163 3418 
Q 2592 3418 2822 3302 
Q 3053 3187 3152 2918 
Q 3251 2650 3251 2144 
L 3251 0 
L 2720 0 
L 2720 2157 
Q 2720 2464 2653 2630 
Q 2586 2797 2432 2867 
Q 2278 2938 1997 2938 
Q 1651 2938 1465 2829 
Q 1280 2720 1200 2464 
Q 1120 2208 1120 1734 
L 1120 0 
L 582 0 
L 582 4659 
z
" transform="scale(0.015625)"/>
       <path id="BerkeleyMono-Regular-6d" d="M 294 3341 
L 774 3341 
L 774 2912 
L 819 2912 
Q 928 3200 1062 3309 
Q 1197 3418 1446 3418 
Q 1734 3418 1888 3306 
Q 2042 3194 2112 2912 
L 2144 2912 
Q 2259 3206 2403 3312 
Q 2547 3418 2816 3418 
Q 3098 3418 3254 3302 
Q 3411 3187 3475 2918 
Q 3539 2650 3539 2163 
L 3539 0 
L 3034 0 
L 3034 2042 
Q 3034 2387 2998 2576 
Q 2963 2765 2870 2848 
Q 2778 2931 2611 2931 
Q 2438 2931 2342 2841 
Q 2246 2752 2208 2544 
Q 2170 2336 2170 1946 
L 2170 0 
L 1670 0 
L 1683 2035 
Q 1690 2541 1584 2736 
Q 1478 2931 1235 2931 
Q 1062 2931 969 2838 
Q 877 2746 835 2525 
Q 794 2304 794 1907 
L 794 0 
L 294 0 
L 294 3341 
z
" transform="scale(0.015625)"/>
       <path id="BerkeleyMono-Regular-61" d="M 1594 -64 
Q 1184 -64 963 25 
Q 742 115 649 326 
Q 557 538 557 928 
Q 557 1389 691 1641 
Q 826 1894 1142 2000 
Q 1459 2106 2042 2106 
L 2643 2106 
L 2643 2266 
Q 2643 2534 2576 2681 
Q 2509 2829 2345 2893 
Q 2182 2957 1882 2957 
Q 1491 2957 1350 2857 
Q 1210 2758 1197 2477 
L 659 2477 
Q 659 2848 768 3049 
Q 877 3251 1139 3337 
Q 1402 3424 1882 3424 
Q 2381 3424 2653 3321 
Q 2925 3219 3037 2969 
Q 3149 2720 3149 2266 
L 3149 0 
L 2662 0 
L 2662 429 
L 2618 429 
Q 2451 147 2236 41 
Q 2022 -64 1594 -64 
z
M 1094 986 
Q 1094 653 1228 534 
Q 1363 416 1728 416 
Q 2086 416 2278 528 
Q 2470 640 2553 902 
Q 2637 1165 2637 1651 
L 1914 1645 
Q 1594 1638 1418 1577 
Q 1242 1517 1168 1379 
Q 1094 1242 1094 986 
z
" transform="scale(0.015625)"/>
       <path id="BerkeleyMono-Regular-6b" d="M 1318 1786 
L 1318 0 
L 794 0 
L 794 4659 
L 1318 4659 
L 1318 1882 
L 2694 3341 
L 3386 3341 
L 1958 1850 
L 3597 0 
L 2880 0 
L 1318 1786 
z
" transform="scale(0.015625)"/>
      </defs>
      <use xlink:href="#BerkeleyMono-Regular-42"/>
      <use xlink:href="#BerkeleyMono-Regular-65" transform="translate(59.999985 0)"/>
      <use xlink:href="#BerkeleyMono-Regular-6e" transform="translate(119.999969 0)"/>
      <use xlink:href="#BerkeleyMono-Regular-63" transform="translate(179.999954 0)"/>
      <use xlink:href="#BerkeleyMono-Regular-68" transform="translate(239.999939 0)"/>
      <use xlink:href="#BerkeleyMono-Regular-6d" transform="translate(299.999924 0)"/>
      <use xlink:href="#BerkeleyMono-Regular-61" transform="translate(359.999908 0)"/>
      <use xlink:href="#BerkeleyMono-Regular-72" transform="translate(419.999893 0)"/>
      <use xlink:href="#BerkeleyMono-Regular-6b" transform="translate(479.999878 0)"/>
     </g>
     <!--  -->
     <g transform="translate(534.371205 542.646168) scale(0.1 -0.1)"/>
    </g>
   </g>
   <g id="matplotlib.axis_2">
    <g id="ytick_1">
     <g id="line2d_10">
      <path d="M 89.088866 496.665543 
L 979.653543 496.665543 
" clip-path="url(#p213d8e87f8)" style="fill: none; stroke: #000000; stroke-opacity: 0.3; stroke-width: 0.5; stroke-linecap: square"/>
     </g>
     <g id="line2d_11">
      <defs>
       <path id="ma77de4cd52" d="M 0 0 
L 2.5 0 
" style="stroke: #000000; stroke-width: 0.5"/>
      </defs>
      <g>
       <use xlink:href="#ma77de4cd52" x="89.088866" y="496.665543" style="stroke: #000000; stroke-width: 0.5"/>
      </g>
     </g>
     <g id="line2d_12">
      <defs>
       <path id="m2bc1beb39c" d="M 0 0 
L -2.5 0 
" style="stroke: #000000; stroke-width: 0.5"/>
      </defs>
      <g>
       <use xlink:href="#m2bc1beb39c" x="979.653543" y="496.665543" style="stroke: #000000; stroke-width: 0.5"/>
      </g>
     </g>
     <g id="text_5">
      <!-- $0$ -->
      <g transform="translate(79.188866 500.305387) scale(0.1 -0.1)">
       <defs>
        <path id="DejaVuSans-30" d="M 2034 4250 
Q 1547 4250 1301 3770 
Q 1056 3291 1056 2328 
Q 1056 1369 1301 889 
Q 1547 409 2034 409 
Q 2525 409 2770 889 
Q 3016 1369 3016 2328 
Q 3016 3291 2770 3770 
Q 2525 4250 2034 4250 
z
M 2034 4750 
Q 2819 4750 3233 4129 
Q 3647 3509 3647 2328 
Q 3647 1150 3233 529 
Q 2819 -91 2034 -91 
Q 1250 -91 836 529 
Q 422 1150 422 2328 
Q 422 3509 836 4129 
Q 1250 4750 2034 4750 
z
" transform="scale(0.015625)"/>
       </defs>
       <use xlink:href="#DejaVuSans-30" transform="translate(0 0.78125)"/>
      </g>
     </g>
    </g>
    <g id="ytick_2">
     <g id="line2d_13">
      <path d="M 89.088866 411.228926 
L 979.653543 411.228926 
" clip-path="url(#p213d8e87f8)" style="fill: none; stroke: #000000; stroke-opacity: 0.3; stroke-width: 0.5; stroke-linecap: square"/>
     </g>
     <g id="line2d_14">
      <g>
       <use xlink:href="#ma77de4cd52" x="89.088866" y="411.228926" style="stroke: #000000; stroke-width: 0.5"/>
      </g>
     </g>
     <g id="line2d_15">
      <g>
       <use xlink:href="#m2bc1beb39c" x="979.653543" y="411.228926" style="stroke: #000000; stroke-width: 0.5"/>
      </g>
     </g>
     <g id="text_6">
      <!-- $20$ -->
      <g transform="translate(72.788866 414.86877) scale(0.1 -0.1)">
       <defs>
        <path id="DejaVuSans-32" d="M 1228 531 
L 3431 531 
L 3431 0 
L 469 0 
L 469 531 
Q 828 903 1448 1529 
Q 2069 2156 2228 2338 
Q 2531 2678 2651 2914 
Q 2772 3150 2772 3378 
Q 2772 3750 2511 3984 
Q 2250 4219 1831 4219 
Q 1534 4219 1204 4116 
Q 875 4013 500 3803 
L 500 4441 
Q 881 4594 1212 4672 
Q 1544 4750 1819 4750 
Q 2544 4750 2975 4387 
Q 3406 4025 3406 3419 
Q 3406 3131 3298 2873 
Q 3191 2616 2906 2266 
Q 2828 2175 2409 1742 
Q 1991 1309 1228 531 
z
" transform="scale(0.015625)"/>
       </defs>
       <use xlink:href="#DejaVuSans-32" transform="translate(0 0.78125)"/>
       <use xlink:href="#DejaVuSans-30" transform="translate(63.623047 0.78125)"/>
      </g>
     </g>
    </g>
    <g id="ytick_3">
     <g id="line2d_16">
      <path d="M 89.088866 325.792309 
L 979.653543 325.792309 
" clip-path="url(#p213d8e87f8)" style="fill: none; stroke: #000000; stroke-opacity: 0.3; stroke-width: 0.5; stroke-linecap: square"/>
     </g>
     <g id="line2d_17">
      <g>
       <use xlink:href="#ma77de4cd52" x="89.088866" y="325.792309" style="stroke: #000000; stroke-width: 0.5"/>
      </g>
     </g>
     <g id="line2d_18">
      <g>
       <use xlink:href="#m2bc1beb39c" x="979.653543" y="325.792309" style="stroke: #000000; stroke-width: 0.5"/>
      </g>
     </g>
     <g id="text_7">
      <!-- $40$ -->
      <g transform="translate(72.788866 329.432152) scale(0.1 -0.1)">
       <defs>
        <path id="DejaVuSans-34" d="M 2419 4116 
L 825 1625 
L 2419 1625 
L 2419 4116 
z
M 2253 4666 
L 3047 4666 
L 3047 1625 
L 3713 1625 
L 3713 1100 
L 3047 1100 
L 3047 0 
L 2419 0 
L 2419 1100 
L 313 1100 
L 313 1709 
L 2253 4666 
z
" transform="scale(0.015625)"/>
       </defs>
       <use xlink:href="#DejaVuSans-34" transform="translate(0 0.78125)"/>
       <use xlink:href="#DejaVuSans-30" transform="translate(63.623047 0.78125)"/>
      </g>
     </g>
    </g>
    <g id="ytick_4">
     <g id="line2d_19">
      <path d="M 89.088866 240.355691 
L 979.653543 240.355691 
" clip-path="url(#p213d8e87f8)" style="fill: none; stroke: #000000; stroke-opacity: 0.3; stroke-width: 0.5; stroke-linecap: square"/>
     </g>
     <g id="line2d_20">
      <g>
       <use xlink:href="#ma77de4cd52" x="89.088866" y="240.355691" style="stroke: #000000; stroke-width: 0.5"/>
      </g>
     </g>
     <g id="line2d_21">
      <g>
       <use xlink:href="#m2bc1beb39c" x="979.653543" y="240.355691" style="stroke: #000000; stroke-width: 0.5"/>
      </g>
     </g>
     <g id="text_8">
      <!-- $60$ -->
      <g transform="translate(72.788866 243.995535) scale(0.1 -0.1)">
       <defs>
        <path id="DejaVuSans-36" d="M 2113 2584 
Q 1688 2584 1439 2293 
Q 1191 2003 1191 1497 
Q 1191 994 1439 701 
Q 1688 409 2113 409 
Q 2538 409 2786 701 
Q 3034 994 3034 1497 
Q 3034 2003 2786 2293 
Q 2538 2584 2113 2584 
z
M 3366 4563 
L 3366 3988 
Q 3128 4100 2886 4159 
Q 2644 4219 2406 4219 
Q 1781 4219 1451 3797 
Q 1122 3375 1075 2522 
Q 1259 2794 1537 2939 
Q 1816 3084 2150 3084 
Q 2853 3084 3261 2657 
Q 3669 2231 3669 1497 
Q 3669 778 3244 343 
Q 2819 -91 2113 -91 
Q 1303 -91 875 529 
Q 447 1150 447 2328 
Q 447 3434 972 4092 
Q 1497 4750 2381 4750 
Q 2619 4750 2861 4703 
Q 3103 4656 3366 4563 
z
" transform="scale(0.015625)"/>
       </defs>
       <use xlink:href="#DejaVuSans-36" transform="translate(0 0.78125)"/>
       <use xlink:href="#DejaVuSans-30" transform="translate(63.623047 0.78125)"/>
      </g>
     </g>
    </g>
    <g id="ytick_5">
     <g id="line2d_22">
      <path d="M 89.088866 154.919074 
L 979.653543 154.919074 
" clip-path="url(#p213d8e87f8)" style="fill: none; stroke: #000000; stroke-opacity: 0.3; stroke-width: 0.5; stroke-linecap: square"/>
     </g>
     <g id="line2d_23">
      <g>
       <use xlink:href="#ma77de4cd52" x="89.088866" y="154.919074" style="stroke: #000000; stroke-width: 0.5"/>
      </g>
     </g>
     <g id="line2d_24">
      <g>
       <use xlink:href="#m2bc1beb39c" x="979.653543" y="154.919074" style="stroke: #000000; stroke-width: 0.5"/>
      </g>
     </g>
     <g id="text_9">
      <!-- $80$ -->
      <g transform="translate(72.788866 158.558918) scale(0.1 -0.1)">
       <defs>
        <path id="DejaVuSans-38" d="M 2034 2216 
Q 1584 2216 1326 1975 
Q 1069 1734 1069 1313 
Q 1069 891 1326 650 
Q 1584 409 2034 409 
Q 2484 409 2743 651 
Q 3003 894 3003 1313 
Q 3003 1734 2745 1975 
Q 2488 2216 2034 2216 
z
M 1403 2484 
Q 997 2584 770 2862 
Q 544 3141 544 3541 
Q 544 4100 942 4425 
Q 1341 4750 2034 4750 
Q 2731 4750 3128 4425 
Q 3525 4100 3525 3541 
Q 3525 3141 3298 2862 
Q 3072 2584 2669 2484 
Q 3125 2378 3379 2068 
Q 3634 1759 3634 1313 
Q 3634 634 3220 271 
Q 2806 -91 2034 -91 
Q 1263 -91 848 271 
Q 434 634 434 1313 
Q 434 1759 690 2068 
Q 947 2378 1403 2484 
z
M 1172 3481 
Q 1172 3119 1398 2916 
Q 1625 2713 2034 2713 
Q 2441 2713 2670 2916 
Q 2900 3119 2900 3481 
Q 2900 3844 2670 4047 
Q 2441 4250 2034 4250 
Q 1625 4250 1398 4047 
Q 1172 3844 1172 3481 
z
" transform="scale(0.015625)"/>
       </defs>
       <use xlink:href="#DejaVuSans-38" transform="translate(0 0.78125)"/>
       <use xlink:href="#DejaVuSans-30" transform="translate(63.623047 0.78125)"/>
      </g>
     </g>
    </g>
    <g id="ytick_6">
     <g id="line2d_25">
      <path d="M 89.088866 69.482457 
L 979.653543 69.482457 
" clip-path="url(#p213d8e87f8)" style="fill: none; stroke: #000000; stroke-opacity: 0.3; stroke-width: 0.5; stroke-linecap: square"/>
     </g>
     <g id="line2d_26">
      <g>
       <use xlink:href="#ma77de4cd52" x="89.088866" y="69.482457" style="stroke: #000000; stroke-width: 0.5"/>
      </g>
     </g>
     <g id="line2d_27">
      <g>
       <use xlink:href="#m2bc1beb39c" x="979.653543" y="69.482457" style="stroke: #000000; stroke-width: 0.5"/>
      </g>
     </g>
     <g id="text_10">
      <!-- $100$ -->
      <g transform="translate(66.488866 73.1223) scale(0.1 -0.1)">
       <defs>
        <path id="DejaVuSans-31" d="M 794 531 
L 1825 531 
L 1825 4091 
L 703 3866 
L 703 4441 
L 1819 4666 
L 2450 4666 
L 2450 531 
L 3481 531 
L 3481 0 
L 794 0 
L 794 531 
z
" transform="scale(0.015625)"/>
       </defs>
       <use xlink:href="#DejaVuSans-31" transform="translate(0 0.78125)"/>
       <use xlink:href="#DejaVuSans-30" transform="translate(63.623047 0.78125)"/>
       <use xlink:href="#DejaVuSans-30" transform="translate(127.246094 0.78125)"/>
      </g>
     </g>
    </g>
    <g id="text_11">
     <!--  -->
     <g transform="translate(38.567616 283.074) rotate(-90) scale(0.1 -0.1)"/>
     <!-- Score (%) -->
     <g transform="translate(49.453241 310.074) rotate(-90) scale(0.1 -0.1)">
      <defs>
       <path id="BerkeleyMono-Regular-53" d="M 1920 -45 
Q 1325 -45 1011 57 
Q 698 160 566 413 
Q 435 666 435 1139 
L 992 1139 
Q 1018 851 1110 704 
Q 1203 557 1401 499 
Q 1600 442 1984 442 
Q 2323 442 2515 496 
Q 2707 550 2790 684 
Q 2874 819 2874 1075 
Q 2874 1344 2771 1510 
Q 2669 1677 2425 1808 
Q 2182 1939 1709 2086 
Q 1203 2246 944 2403 
Q 685 2560 576 2781 
Q 467 3002 467 3366 
Q 467 3782 595 4003 
Q 723 4224 1027 4317 
Q 1331 4410 1894 4410 
Q 2445 4410 2739 4320 
Q 3034 4230 3165 4012 
Q 3296 3795 3322 3379 
L 2771 3379 
Q 2746 3603 2662 3718 
Q 2579 3834 2403 3878 
Q 2227 3923 1907 3923 
Q 1549 3923 1353 3868 
Q 1158 3814 1078 3696 
Q 998 3578 998 3360 
Q 998 3142 1100 3001 
Q 1203 2861 1446 2742 
Q 1690 2624 2182 2458 
Q 2675 2285 2934 2118 
Q 3194 1952 3299 1712 
Q 3405 1472 3405 1069 
Q 3405 627 3273 390 
Q 3142 154 2828 54 
Q 2515 -45 1920 -45 
z
" transform="scale(0.015625)"/>
       <path id="BerkeleyMono-Regular-6f" d="M 1914 -64 
Q 1350 -64 1046 93 
Q 742 250 614 621 
Q 486 992 486 1677 
Q 486 2368 614 2739 
Q 742 3110 1046 3267 
Q 1350 3424 1914 3424 
Q 2477 3424 2784 3267 
Q 3091 3110 3219 2736 
Q 3347 2362 3347 1677 
Q 3347 992 3219 621 
Q 3091 250 2784 93 
Q 2477 -64 1914 -64 
z
M 1024 1677 
Q 1024 1178 1104 909 
Q 1184 640 1373 528 
Q 1562 416 1914 416 
Q 2266 416 2458 528 
Q 2650 640 2730 909 
Q 2810 1178 2810 1677 
Q 2810 2182 2730 2451 
Q 2650 2720 2458 2835 
Q 2266 2950 1914 2950 
Q 1562 2950 1373 2835 
Q 1184 2720 1104 2451 
Q 1024 2182 1024 1677 
z
" transform="scale(0.015625)"/>
       <path id="BerkeleyMono-Regular-20" transform="scale(0.015625)"/>
       <path id="BerkeleyMono-Regular-28" d="M 3034 -730 
Q 2573 -698 2291 -560 
Q 2010 -422 1834 -128 
Q 1658 166 1530 698 
Q 1446 1056 1414 1350 
Q 1382 1645 1382 2093 
Q 1382 2541 1414 2835 
Q 1446 3130 1530 3488 
Q 1658 4019 1834 4313 
Q 2010 4608 2291 4745 
Q 2573 4883 3034 4915 
L 3027 4365 
Q 2707 4333 2515 4233 
Q 2323 4134 2211 3923 
Q 2099 3712 2029 3334 
Q 1965 2970 1939 2707 
Q 1914 2445 1914 2093 
Q 1914 1741 1939 1478 
Q 1965 1216 2029 851 
Q 2106 474 2218 262 
Q 2330 51 2518 -48 
Q 2707 -147 3027 -179 
L 3034 -730 
z
" transform="scale(0.015625)"/>
       <path id="BerkeleyMono-Regular-25" d="M 2995 4352 
L 3526 4352 
L 794 0 
L 269 0 
L 2995 4352 
z
M 218 3501 
Q 218 3987 410 4198 
Q 602 4410 1043 4410 
Q 1485 4410 1683 4198 
Q 1882 3987 1882 3501 
Q 1882 3040 1683 2829 
Q 1485 2618 1043 2618 
Q 602 2618 410 2826 
Q 218 3034 218 3501 
z
M 678 3501 
Q 678 3296 704 3203 
Q 730 3110 806 3075 
Q 883 3040 1043 3040 
Q 1203 3040 1280 3075 
Q 1357 3110 1389 3206 
Q 1421 3302 1421 3501 
Q 1421 3718 1389 3824 
Q 1357 3930 1280 3968 
Q 1203 4006 1043 4006 
Q 883 4006 806 3968 
Q 730 3930 704 3824 
Q 678 3718 678 3501 
z
M 1952 826 
Q 1952 1312 2144 1523 
Q 2336 1734 2778 1734 
Q 3219 1734 3417 1523 
Q 3616 1312 3616 826 
Q 3616 358 3417 150 
Q 3219 -58 2778 -58 
Q 2336 -58 2144 150 
Q 1952 358 1952 826 
z
M 2413 826 
Q 2413 621 2438 528 
Q 2464 435 2541 400 
Q 2618 365 2778 365 
Q 2938 365 3014 400 
Q 3091 435 3123 531 
Q 3155 627 3155 826 
Q 3155 1043 3123 1148 
Q 3091 1254 3014 1292 
Q 2938 1331 2778 1331 
Q 2618 1331 2541 1292 
Q 2464 1254 2438 1148 
Q 2413 1043 2413 826 
z
" transform="scale(0.015625)"/>
       <path id="BerkeleyMono-Regular-29" d="M 813 -179 
Q 1133 -147 1321 -48 
Q 1510 51 1622 262 
Q 1734 474 1811 851 
Q 1875 1216 1900 1478 
Q 1926 1741 1926 2093 
Q 1926 2445 1900 2707 
Q 1875 2970 1811 3334 
Q 1741 3712 1629 3923 
Q 1517 4134 1325 4233 
Q 1133 4333 813 4365 
L 806 4915 
Q 1267 4883 1548 4745 
Q 1830 4608 2006 4313 
Q 2182 4019 2310 3488 
Q 2394 3130 2426 2835 
Q 2458 2541 2458 2093 
Q 2458 1645 2426 1350 
Q 2394 1056 2310 698 
Q 2182 166 2006 -128 
Q 1830 -422 1548 -560 
Q 1267 -698 806 -730 
L 813 -179 
z
" transform="scale(0.015625)"/>
      </defs>
      <use xlink:href="#BerkeleyMono-Regular-53"/>
      <use xlink:href="#BerkeleyMono-Regular-63" transform="translate(59.999985 0)"/>
      <use xlink:href="#BerkeleyMono-Regular-6f" transform="translate(119.999969 0)"/>
      <use xlink:href="#BerkeleyMono-Regular-72" transform="translate(179.999954 0)"/>
      <use xlink:href="#BerkeleyMono-Regular-65" transform="translate(239.999939 0)"/>
      <use xlink:href="#BerkeleyMono-Regular-20" transform="translate(299.999924 0)"/>
      <use xlink:href="#BerkeleyMono-Regular-28" transform="translate(359.999908 0)"/>
      <use xlink:href="#BerkeleyMono-Regular-25" transform="translate(419.999893 0)"/>
      <use xlink:href="#BerkeleyMono-Regular-29" transform="translate(479.999878 0)"/>
     </g>
     <!--  -->
     <g transform="translate(60.338866 283.074) rotate(-90) scale(0.1 -0.1)"/>
    </g>
   </g>
   <g id="patch_3">
    <path d="M 132.657578 159.190905 
L 132.657578 496.665543 
L 170.916019 496.665543 
L 170.916019 159.190905 
L 132.657578 159.190905 
" clip-path="url(#p213d8e87f8)" style="fill: #ded9ff; stroke: #000000; stroke-width: 2; stroke-linejoin: miter"/>
   </g>
   <g id="patch_4">
    <path d="M 419.595883 159.190905 
L 419.595883 496.665543 
L 457.854323 496.665543 
L 457.854323 159.190905 
L 419.595883 159.190905 
" clip-path="url(#p213d8e87f8)" style="fill: #ded9ff; stroke: #000000; stroke-width: 2; stroke-linejoin: miter"/>
   </g>
   <g id="patch_5">
    <path d="M 706.534187 496.665543 
L 706.534187 496.665543 
L 744.792628 496.665543 
L 744.792628 496.665543 
L 706.534187 496.665543 
" clip-path="url(#p213d8e87f8)" style="fill: #ded9ff; stroke: #000000; stroke-width: 2; stroke-linejoin: miter"/>
   </g>
   <g id="PathCollection_1">
    <defs>
     <path id="m041dc8befe" d="M 0 0 
C 0 0 0 0 0 0 
C 0 0 0 0 0 0 
C 0 0 0 0 0 0 
C 0 0 0 0 0 0 
C 0 0 0 0 0 0 
C 0 0 0 0 0 0 
C 0 0 0 0 0 0 
C 0 0 0 0 0 0 
z
" style="stroke: #000000; stroke-opacity: 0"/>
    </defs>
    <g clip-path="url(#p213d8e87f8)">
     <use xlink:href="#m041dc8befe" x="151.786798" y="159.190905" style="fill: #ded9ff; fill-opacity: 0; stroke: #000000; stroke-opacity: 0"/>
     <use xlink:href="#m041dc8befe" x="438.725103" y="159.190905" style="fill: #ded9ff; fill-opacity: 0; stroke: #000000; stroke-opacity: 0"/>
     <use xlink:href="#m041dc8befe" x="725.663408" y="496.665543" style="fill: #ded9ff; fill-opacity: 0; stroke: #000000; stroke-opacity: 0"/>
    </g>
   </g>
   <g id="patch_6">
    <path d="M 170.916019 167.39282 
L 170.916019 496.665543 
L 209.174459 496.665543 
L 209.174459 167.39282 
L 170.916019 167.39282 
" clip-path="url(#p213d8e87f8)" style="fill: #92a3dd; stroke: #000000; stroke-width: 2; stroke-linejoin: miter"/>
   </g>
   <g id="patch_7">
    <path d="M 457.854323 165.342341 
L 457.854323 496.665543 
L 496.112764 496.665543 
L 496.112764 165.342341 
L 457.854323 165.342341 
" clip-path="url(#p213d8e87f8)" style="fill: #92a3dd; stroke: #000000; stroke-width: 2; stroke-linejoin: miter"/>
   </g>
   <g id="patch_8">
    <path d="M 744.792628 338.778674 
L 744.792628 496.665543 
L 783.051069 496.665543 
L 783.051069 338.778674 
L 744.792628 338.778674 
" clip-path="url(#p213d8e87f8)" style="fill: #92a3dd; stroke: #000000; stroke-width: 2; stroke-linejoin: miter"/>
   </g>
   <g id="PathCollection_2">
    <defs>
     <path id="mb05e9f2101" d="M 0 0 
C 0 0 0 0 0 0 
C 0 0 0 0 0 0 
C 0 0 0 0 0 0 
C 0 0 0 0 0 0 
C 0 0 0 0 0 0 
C 0 0 0 0 0 0 
C 0 0 0 0 0 0 
C 0 0 0 0 0 0 
z
" style="stroke: #000000; stroke-opacity: 0"/>
    </defs>
    <g clip-path="url(#p213d8e87f8)">
     <use xlink:href="#mb05e9f2101" x="190.045239" y="167.39282" style="fill: #92a3dd; fill-opacity: 0; stroke: #000000; stroke-opacity: 0"/>
     <use xlink:href="#mb05e9f2101" x="476.983544" y="165.342341" style="fill: #92a3dd; fill-opacity: 0; stroke: #000000; stroke-opacity: 0"/>
     <use xlink:href="#mb05e9f2101" x="763.921848" y="338.778674" style="fill: #92a3dd; fill-opacity: 0; stroke: #000000; stroke-opacity: 0"/>
    </g>
   </g>
   <g id="patch_9">
    <path d="M 89.088866 496.665543 
L 89.088866 69.482457 
" style="fill: none; stroke: #000000; stroke-linejoin: miter; stroke-linecap: square"/>
   </g>
   <g id="patch_10">
    <path d="M 979.653543 496.665543 
L 979.653543 69.482457 
" style="fill: none; stroke: #000000; stroke-linejoin: miter; stroke-linecap: square"/>
   </g>
   <g id="patch_11">
    <path d="M 89.088866 496.665543 
L 979.653543 496.665543 
" style="fill: none; stroke: #000000; stroke-linejoin: miter; stroke-linecap: square"/>
   </g>
   <g id="patch_12">
    <path d="M 89.088866 69.482457 
L 979.653543 69.482457 
" style="fill: none; stroke: #000000; stroke-linejoin: miter; stroke-linecap: square"/>
   </g>
   <g id="patch_13">
    <path d="M 209.174459 161.32682 
L 209.174459 496.665543 
L 247.4329 496.665543 
L 247.4329 161.32682 
L 209.174459 161.32682 
" clip-path="url(#p213d8e87f8)" style="fill: #4a6bab; stroke: #000000; stroke-width: 2; stroke-linejoin: miter"/>
   </g>
   <g id="patch_14">
    <path d="M 496.112764 160.130708 
L 496.112764 496.665543 
L 534.371205 496.665543 
L 534.371205 160.130708 
L 496.112764 160.130708 
" clip-path="url(#p213d8e87f8)" style="fill: #4a6bab; stroke: #000000; stroke-width: 2; stroke-linejoin: miter"/>
   </g>
   <g id="patch_15">
    <path d="M 783.051069 337.924308 
L 783.051069 496.665543 
L 821.309509 496.665543 
L 821.309509 337.924308 
L 783.051069 337.924308 
" clip-path="url(#p213d8e87f8)" style="fill: #4a6bab; stroke: #000000; stroke-width: 2; stroke-linejoin: miter"/>
   </g>
   <g id="text_12">
    <!--  -->
    <g transform="translate(534.371205 37.285707) scale(0.12 -0.12)"/>
    <!-- Execution Accuracy Across Benchmarks -->
    <g transform="translate(404.771205 50.348457) scale(0.12 -0.12)">
     <defs>
      <path id="BerkeleyMono-Regular-45" d="M 730 4352 
L 3142 4352 
L 3142 3853 
L 1280 3853 
L 1280 2515 
L 2899 2515 
L 2899 2016 
L 1280 2016 
L 1280 499 
L 3270 499 
L 3270 0 
L 730 0 
L 730 4352 
z
" transform="scale(0.015625)"/>
      <path id="BerkeleyMono-Regular-78" d="M 1574 1690 
L 493 3341 
L 1114 3341 
L 1914 2035 
L 1926 2035 
L 2726 3341 
L 3347 3341 
L 2259 1690 
L 3405 0 
L 2771 0 
L 1920 1318 
L 1914 1318 
L 1069 0 
L 435 0 
L 1574 1690 
z
" transform="scale(0.015625)"/>
      <path id="BerkeleyMono-Regular-75" d="M 1606 -64 
Q 1197 -64 976 48 
Q 755 160 662 432 
Q 570 704 570 1203 
L 570 3341 
L 1107 3341 
L 1107 1190 
Q 1107 890 1168 723 
Q 1229 557 1369 486 
Q 1510 416 1766 416 
Q 2138 416 2336 525 
Q 2534 634 2620 890 
Q 2707 1146 2707 1613 
L 2707 3341 
L 3238 3341 
L 3238 0 
L 2707 0 
L 2707 499 
L 2662 499 
Q 2515 179 2291 57 
Q 2067 -64 1606 -64 
z
" transform="scale(0.015625)"/>
      <path id="BerkeleyMono-Regular-41" d="M 1510 4352 
L 2342 4352 
L 3590 0 
L 3046 0 
L 2726 1101 
L 1120 1101 
L 806 0 
L 262 0 
L 1510 4352 
z
M 2605 1581 
L 1952 3885 
L 1901 3885 
L 1248 1581 
L 2605 1581 
z
" transform="scale(0.015625)"/>
      <path id="BerkeleyMono-Regular-79" d="M 1786 243 
L 1530 243 
L 416 3341 
L 960 3341 
L 1914 627 
L 1926 627 
L 2848 3341 
L 3392 3341 
L 1741 -1414 
L 1203 -1414 
L 1786 243 
z
" transform="scale(0.015625)"/>
     </defs>
     <use xlink:href="#BerkeleyMono-Regular-45"/>
     <use xlink:href="#BerkeleyMono-Regular-78" transform="translate(59.999985 0)"/>
     <use xlink:href="#BerkeleyMono-Regular-65" transform="translate(119.999969 0)"/>
     <use xlink:href="#BerkeleyMono-Regular-63" transform="translate(179.999954 0)"/>
     <use xlink:href="#BerkeleyMono-Regular-75" transform="translate(239.999939 0)"/>
     <use xlink:href="#BerkeleyMono-Regular-74" transform="translate(299.999924 0)"/>
     <use xlink:href="#BerkeleyMono-Regular-69" transform="translate(359.999908 0)"/>
     <use xlink:href="#BerkeleyMono-Regular-6f" transform="translate(419.999893 0)"/>
     <use xlink:href="#BerkeleyMono-Regular-6e" transform="translate(479.999878 0)"/>
     <use xlink:href="#BerkeleyMono-Regular-20" transform="translate(539.999863 0)"/>
     <use xlink:href="#BerkeleyMono-Regular-41" transform="translate(599.999847 0)"/>
     <use xlink:href="#BerkeleyMono-Regular-63" transform="translate(659.999832 0)"/>
     <use xlink:href="#BerkeleyMono-Regular-63" transform="translate(719.999817 0)"/>
     <use xlink:href="#BerkeleyMono-Regular-75" transform="translate(779.999802 0)"/>
     <use xlink:href="#BerkeleyMono-Regular-72" transform="translate(839.999786 0)"/>
     <use xlink:href="#BerkeleyMono-Regular-61" transform="translate(899.999771 0)"/>
     <use xlink:href="#BerkeleyMono-Regular-63" transform="translate(959.999756 0)"/>
     <use xlink:href="#BerkeleyMono-Regular-79" transform="translate(1019.999741 0)"/>
     <use xlink:href="#BerkeleyMono-Regular-20" transform="translate(1079.999725 0)"/>
     <use xlink:href="#BerkeleyMono-Regular-41" transform="translate(1139.99971 0)"/>
     <use xlink:href="#BerkeleyMono-Regular-63" transform="translate(1199.999695 0)"/>
     <use xlink:href="#BerkeleyMono-Regular-72" transform="translate(1259.99968 0)"/>
     <use xlink:href="#BerkeleyMono-Regular-6f" transform="translate(1319.999664 0)"/>
     <use xlink:href="#BerkeleyMono-Regular-73" transform="translate(1379.999649 0)"/>
     <use xlink:href="#BerkeleyMono-Regular-73" transform="translate(1439.999634 0)"/>
     <use xlink:href="#BerkeleyMono-Regular-20" transform="translate(1499.999619 0)"/>
     <use xlink:href="#BerkeleyMono-Regular-42" transform="translate(1559.999603 0)"/>
     <use xlink:href="#BerkeleyMono-Regular-65" transform="translate(1619.999588 0)"/>
     <use xlink:href="#BerkeleyMono-Regular-6e" transform="translate(1679.999573 0)"/>
     <use xlink:href="#BerkeleyMono-Regular-63" transform="translate(1739.999557 0)"/>
     <use xlink:href="#BerkeleyMono-Regular-68" transform="translate(1799.999542 0)"/>
     <use xlink:href="#BerkeleyMono-Regular-6d" transform="translate(1859.999527 0)"/>
     <use xlink:href="#BerkeleyMono-Regular-61" transform="translate(1919.999512 0)"/>
     <use xlink:href="#BerkeleyMono-Regular-72" transform="translate(1979.999496 0)"/>
     <use xlink:href="#BerkeleyMono-Regular-6b" transform="translate(2039.999481 0)"/>
     <use xlink:href="#BerkeleyMono-Regular-73" transform="translate(2099.999466 0)"/>
    </g>
    <!--  -->
    <g transform="translate(534.371205 63.482457) scale(0.12 -0.12)"/>
   </g>
   <g id="PathCollection_3">
    <defs>
     <path id="mc6fe6b00cd" d="M 0 0 
C 0 0 0 0 0 0 
C 0 0 0 0 0 0 
C 0 0 0 0 0 0 
C 0 0 0 0 0 0 
C 0 0 0 0 0 0 
C 0 0 0 0 0 0 
C 0 0 0 0 0 0 
C 0 0 0 0 0 0 
z
" style="stroke: #000000; stroke-opacity: 0"/>
    </defs>
    <g clip-path="url(#p213d8e87f8)">
     <use xlink:href="#mc6fe6b00cd" x="228.30368" y="161.32682" style="fill: #4a6bab; fill-opacity: 0; stroke: #000000; stroke-opacity: 0"/>
     <use xlink:href="#mc6fe6b00cd" x="515.241984" y="160.130708" style="fill: #4a6bab; fill-opacity: 0; stroke: #000000; stroke-opacity: 0"/>
     <use xlink:href="#mc6fe6b00cd" x="802.180289" y="337.924308" style="fill: #4a6bab; fill-opacity: 0; stroke: #000000; stroke-opacity: 0"/>
    </g>
   </g>
   <g id="patch_16">
    <path d="M 247.4329 154.491891 
L 247.4329 496.665543 
L 285.691341 496.665543 
L 285.691341 154.491891 
L 247.4329 154.491891 
" clip-path="url(#p213d8e87f8)" style="fill: #273c65; stroke: #000000; stroke-width: 2; stroke-linejoin: miter"/>
   </g>
   <g id="patch_17">
    <path d="M 534.371205 169.827764 
L 534.371205 496.665543 
L 572.629645 496.665543 
L 572.629645 169.827764 
L 534.371205 169.827764 
" clip-path="url(#p213d8e87f8)" style="fill: #273c65; stroke: #000000; stroke-width: 2; stroke-linejoin: miter"/>
   </g>
   <g id="patch_18">
    <path d="M 821.309509 266.499296 
L 821.309509 496.665543 
L 859.56795 496.665543 
L 859.56795 266.499296 
L 821.309509 266.499296 
" clip-path="url(#p213d8e87f8)" style="fill: #273c65; stroke: #000000; stroke-width: 2; stroke-linejoin: miter"/>
   </g>
   <g id="PathCollection_4">
    <defs>
     <path id="m7a1535f19f" d="M 0 0 
C 0 0 0 0 0 0 
C 0 0 0 0 0 0 
C 0 0 0 0 0 0 
C 0 0 0 0 0 0 
C 0 0 0 0 0 0 
C 0 0 0 0 0 0 
C 0 0 0 0 0 0 
C 0 0 0 0 0 0 
z
" style="stroke: #000000; stroke-opacity: 0"/>
    </defs>
    <g clip-path="url(#p213d8e87f8)">
     <use xlink:href="#m7a1535f19f" x="266.56212" y="154.491891" style="fill: #273c65; fill-opacity: 0; stroke: #000000; stroke-opacity: 0"/>
     <use xlink:href="#m7a1535f19f" x="553.500425" y="169.827764" style="fill: #273c65; fill-opacity: 0; stroke: #000000; stroke-opacity: 0"/>
     <use xlink:href="#m7a1535f19f" x="840.43873" y="266.499296" style="fill: #273c65; fill-opacity: 0; stroke: #000000; stroke-opacity: 0"/>
    </g>
   </g>
   <g id="patch_19">
    <path d="M 285.691341 148.938511 
L 285.691341 496.665543 
L 323.949781 496.665543 
L 323.949781 148.938511 
L 285.691341 148.938511 
" clip-path="url(#p213d8e87f8)" style="fill: #121926; stroke: #000000; stroke-width: 2; stroke-linejoin: miter"/>
   </g>
   <g id="patch_20">
    <path d="M 572.629645 169.955919 
L 572.629645 496.665543 
L 610.888086 496.665543 
L 610.888086 169.955919 
L 572.629645 169.955919 
" clip-path="url(#p213d8e87f8)" style="fill: #121926; stroke: #000000; stroke-width: 2; stroke-linejoin: miter"/>
   </g>
   <g id="patch_21">
    <path d="M 859.56795 279.186634 
L 859.56795 496.665543 
L 897.826391 496.665543 
L 897.826391 279.186634 
L 859.56795 279.186634 
" clip-path="url(#p213d8e87f8)" style="fill: #121926; stroke: #000000; stroke-width: 2; stroke-linejoin: miter"/>
   </g>
   <g id="PathCollection_5">
    <defs>
     <path id="mb6c3f2c3c8" d="M 0 0 
C 0 0 0 0 0 0 
C 0 0 0 0 0 0 
C 0 0 0 0 0 0 
C 0 0 0 0 0 0 
C 0 0 0 0 0 0 
C 0 0 0 0 0 0 
C 0 0 0 0 0 0 
C 0 0 0 0 0 0 
z
" style="stroke: #000000; stroke-opacity: 0"/>
    </defs>
    <g clip-path="url(#p213d8e87f8)">
     <use xlink:href="#mb6c3f2c3c8" x="304.820561" y="148.938511" style="fill: #121926; fill-opacity: 0; stroke: #000000; stroke-opacity: 0"/>
     <use xlink:href="#mb6c3f2c3c8" x="591.758866" y="169.955919" style="fill: #121926; fill-opacity: 0; stroke: #000000; stroke-opacity: 0"/>
     <use xlink:href="#mb6c3f2c3c8" x="878.69717" y="279.186634" style="fill: #121926; fill-opacity: 0; stroke: #000000; stroke-opacity: 0"/>
    </g>
   </g>
   <g id="patch_22">
    <path d="M 323.949781 142.658919 
L 323.949781 496.665543 
L 362.208222 496.665543 
L 362.208222 142.658919 
L 323.949781 142.658919 
" clip-path="url(#p213d8e87f8)" style="fill: #122214; stroke: #000000; stroke-width: 2; stroke-linejoin: miter"/>
   </g>
   <g id="patch_23">
    <path d="M 610.888086 136.678356 
L 610.888086 496.665543 
L 649.146526 496.665543 
L 649.146526 136.678356 
L 610.888086 136.678356 
" clip-path="url(#p213d8e87f8)" style="fill: #122214; stroke: #000000; stroke-width: 2; stroke-linejoin: miter"/>
   </g>
   <g id="patch_24">
    <path d="M 897.826391 252.444973 
L 897.826391 496.665543 
L 936.084831 496.665543 
L 936.084831 252.444973 
L 897.826391 252.444973 
" clip-path="url(#p213d8e87f8)" style="fill: #122214; stroke: #000000; stroke-width: 2; stroke-linejoin: miter"/>
   </g>
   <g id="PathCollection_6">
    <defs>
     <path id="m0a8c922e0b" d="M 0 0 
C 0 0 0 0 0 0 
C 0 0 0 0 0 0 
C 0 0 0 0 0 0 
C 0 0 0 0 0 0 
C 0 0 0 0 0 0 
C 0 0 0 0 0 0 
C 0 0 0 0 0 0 
C 0 0 0 0 0 0 
z
" style="stroke: #000000; stroke-opacity: 0"/>
    </defs>
    <g clip-path="url(#p213d8e87f8)">
     <use xlink:href="#m0a8c922e0b" x="343.079001" y="142.658919" style="fill: #122214; fill-opacity: 0; stroke: #000000; stroke-opacity: 0"/>
     <use xlink:href="#m0a8c922e0b" x="630.017306" y="136.678356" style="fill: #122214; fill-opacity: 0; stroke: #000000; stroke-opacity: 0"/>
     <use xlink:href="#m0a8c922e0b" x="916.955611" y="252.444973" style="fill: #122214; fill-opacity: 0; stroke: #000000; stroke-opacity: 0"/>
    </g>
   </g>
   <g id="legend_1">
    <g id="patch_25">
     <path d="M 811.353543 279.852957 
L 975.153543 279.852957 
L 975.153543 73.982457 
L 811.353543 73.982457 
z
" style="fill: #ffffff; stroke: #000000; stroke-linejoin: miter"/>
    </g>
    <g id="patch_26">
     <path d="M 818.553543 98.498738 
L 836.553543 98.498738 
L 836.553543 92.198738 
L 818.553543 92.198738 
z
" style="fill: #ded9ff; stroke: #000000; stroke-width: 2; stroke-linejoin: miter"/>
    </g>
    <g id="text_13">
     <!--  -->
     <g transform="translate(843.753543 87.734175) scale(0.09 -0.09)"/>
     <!-- Natural (Model) -->
     <g transform="translate(843.753543 97.531238) scale(0.09 -0.09)">
      <defs>
       <path id="BerkeleyMono-Regular-4e" d="M 467 4352 
L 1114 4352 
L 2880 755 
L 2912 755 
L 2829 1638 
L 2829 4352 
L 3366 4352 
L 3366 0 
L 2714 0 
L 954 3597 
L 922 3597 
L 1005 2714 
L 1005 0 
L 467 0 
L 467 4352 
z
" transform="scale(0.015625)"/>
       <path id="BerkeleyMono-Regular-6c" d="M 576 474 
L 1715 474 
L 1715 4179 
L 640 4179 
L 640 4659 
L 2234 4659 
L 2234 474 
L 3296 474 
L 3296 0 
L 576 0 
L 576 474 
z
" transform="scale(0.015625)"/>
       <path id="BerkeleyMono-Regular-4d" d="M 365 4352 
L 1094 4352 
L 1882 2163 
L 1952 2163 
L 2739 4352 
L 3469 4352 
L 3469 0 
L 2944 0 
L 2944 2714 
L 3008 3661 
L 2976 3661 
L 2176 1542 
L 1658 1542 
L 858 3661 
L 826 3661 
L 890 2714 
L 890 0 
L 365 0 
L 365 4352 
z
" transform="scale(0.015625)"/>
      </defs>
      <use xlink:href="#BerkeleyMono-Regular-4e"/>
      <use xlink:href="#BerkeleyMono-Regular-61" transform="translate(59.999985 0)"/>
      <use xlink:href="#BerkeleyMono-Regular-74" transform="translate(119.999969 0)"/>
      <use xlink:href="#BerkeleyMono-Regular-75" transform="translate(179.999954 0)"/>
      <use xlink:href="#BerkeleyMono-Regular-72" transform="translate(239.999939 0)"/>
      <use xlink:href="#BerkeleyMono-Regular-61" transform="translate(299.999924 0)"/>
      <use xlink:href="#BerkeleyMono-Regular-6c" transform="translate(359.999908 0)"/>
      <use xlink:href="#BerkeleyMono-Regular-20" transform="translate(419.999893 0)"/>
      <use xlink:href="#BerkeleyMono-Regular-28" transform="translate(479.999878 0)"/>
      <use xlink:href="#BerkeleyMono-Regular-4d" transform="translate(539.999863 0)"/>
      <use xlink:href="#BerkeleyMono-Regular-6f" transform="translate(599.999847 0)"/>
      <use xlink:href="#BerkeleyMono-Regular-64" transform="translate(659.999832 0)"/>
      <use xlink:href="#BerkeleyMono-Regular-65" transform="translate(719.999817 0)"/>
      <use xlink:href="#BerkeleyMono-Regular-6c" transform="translate(779.999802 0)"/>
      <use xlink:href="#BerkeleyMono-Regular-29" transform="translate(839.999786 0)"/>
     </g>
     <!--  -->
     <g transform="translate(843.753543 107.3283) scale(0.09 -0.09)"/>
    </g>
    <g id="patch_27">
     <path d="M 818.553543 131.079582 
L 836.553543 131.079582 
L 836.553543 124.779582 
L 818.553543 124.779582 
z
" style="fill: #92a3dd; stroke: #000000; stroke-width: 2; stroke-linejoin: miter"/>
    </g>
    <g id="text_14">
     <!--  -->
     <g transform="translate(843.753543 120.315019) scale(0.09 -0.09)"/>
     <!-- Natural (Baseline) -->
     <g transform="translate(843.753543 130.112082) scale(0.09 -0.09)">
      <use xlink:href="#BerkeleyMono-Regular-4e"/>
      <use xlink:href="#BerkeleyMono-Regular-61" transform="translate(59.999985 0)"/>
      <use xlink:href="#BerkeleyMono-Regular-74" transform="translate(119.999969 0)"/>
      <use xlink:href="#BerkeleyMono-Regular-75" transform="translate(179.999954 0)"/>
      <use xlink:href="#BerkeleyMono-Regular-72" transform="translate(239.999939 0)"/>
      <use xlink:href="#BerkeleyMono-Regular-61" transform="translate(299.999924 0)"/>
      <use xlink:href="#BerkeleyMono-Regular-6c" transform="translate(359.999908 0)"/>
      <use xlink:href="#BerkeleyMono-Regular-20" transform="translate(419.999893 0)"/>
      <use xlink:href="#BerkeleyMono-Regular-28" transform="translate(479.999878 0)"/>
      <use xlink:href="#BerkeleyMono-Regular-42" transform="translate(539.999863 0)"/>
      <use xlink:href="#BerkeleyMono-Regular-61" transform="translate(599.999847 0)"/>
      <use xlink:href="#BerkeleyMono-Regular-73" transform="translate(659.999832 0)"/>
      <use xlink:href="#BerkeleyMono-Regular-65" transform="translate(719.999817 0)"/>
      <use xlink:href="#BerkeleyMono-Regular-6c" transform="translate(779.999802 0)"/>
      <use xlink:href="#BerkeleyMono-Regular-69" transform="translate(839.999786 0)"/>
      <use xlink:href="#BerkeleyMono-Regular-6e" transform="translate(899.999771 0)"/>
      <use xlink:href="#BerkeleyMono-Regular-65" transform="translate(959.999756 0)"/>
      <use xlink:href="#BerkeleyMono-Regular-29" transform="translate(1019.999741 0)"/>
     </g>
     <!--  -->
     <g transform="translate(843.753543 139.909144) scale(0.09 -0.09)"/>
    </g>
    <g id="patch_28">
     <path d="M 818.553543 163.660425 
L 836.553543 163.660425 
L 836.553543 157.360425 
L 818.553543 157.360425 
z
" style="fill: #4a6bab; stroke: #000000; stroke-width: 2; stroke-linejoin: miter"/>
    </g>
    <g id="text_15">
     <!--  -->
     <g transform="translate(843.753543 152.895863) scale(0.09 -0.09)"/>
     <!-- Natural (Zeroshot) -->
     <g transform="translate(843.753543 162.692925) scale(0.09 -0.09)">
      <defs>
       <path id="BerkeleyMono-Regular-5a" d="M 512 442 
L 2688 3846 
L 621 3846 
L 621 4352 
L 3322 4352 
L 3322 3910 
L 1133 506 
L 3322 506 
L 3322 0 
L 512 0 
L 512 442 
z
" transform="scale(0.015625)"/>
      </defs>
      <use xlink:href="#BerkeleyMono-Regular-4e"/>
      <use xlink:href="#BerkeleyMono-Regular-61" transform="translate(59.999985 0)"/>
      <use xlink:href="#BerkeleyMono-Regular-74" transform="translate(119.999969 0)"/>
      <use xlink:href="#BerkeleyMono-Regular-75" transform="translate(179.999954 0)"/>
      <use xlink:href="#BerkeleyMono-Regular-72" transform="translate(239.999939 0)"/>
      <use xlink:href="#BerkeleyMono-Regular-61" transform="translate(299.999924 0)"/>
      <use xlink:href="#BerkeleyMono-Regular-6c" transform="translate(359.999908 0)"/>
      <use xlink:href="#BerkeleyMono-Regular-20" transform="translate(419.999893 0)"/>
      <use xlink:href="#BerkeleyMono-Regular-28" transform="translate(479.999878 0)"/>
      <use xlink:href="#BerkeleyMono-Regular-5a" transform="translate(539.999863 0)"/>
      <use xlink:href="#BerkeleyMono-Regular-65" transform="translate(599.999847 0)"/>
      <use xlink:href="#BerkeleyMono-Regular-72" transform="translate(659.999832 0)"/>
      <use xlink:href="#BerkeleyMono-Regular-6f" transform="translate(719.999817 0)"/>
      <use xlink:href="#BerkeleyMono-Regular-73" transform="translate(779.999802 0)"/>
      <use xlink:href="#BerkeleyMono-Regular-68" transform="translate(839.999786 0)"/>
      <use xlink:href="#BerkeleyMono-Regular-6f" transform="translate(899.999771 0)"/>
      <use xlink:href="#BerkeleyMono-Regular-74" transform="translate(959.999756 0)"/>
      <use xlink:href="#BerkeleyMono-Regular-29" transform="translate(1019.999741 0)"/>
     </g>
     <!--  -->
     <g transform="translate(843.753543 172.489988) scale(0.09 -0.09)"/>
    </g>
    <g id="patch_29">
     <path d="M 818.553543 196.483988 
L 836.553543 196.483988 
L 836.553543 190.183988 
L 818.553543 190.183988 
z
" style="fill: #273c65; stroke: #000000; stroke-width: 2; stroke-linejoin: miter"/>
    </g>
    <g id="text_16">
     <!--  -->
     <g transform="translate(843.753543 185.476707) scale(0.09 -0.09)"/>
     <!-- Natural (Synthetic ICL) -->
     <g transform="translate(843.753543 195.705769) scale(0.09 -0.09)">
      <defs>
       <path id="BerkeleyMono-Regular-49" d="M 826 506 
L 1645 506 
L 1645 3846 
L 870 3846 
L 870 4352 
L 2970 4352 
L 2970 3846 
L 2195 3846 
L 2195 506 
L 3008 506 
L 3008 0 
L 826 0 
L 826 506 
z
" transform="scale(0.015625)"/>
       <path id="BerkeleyMono-Regular-43" d="M 2086 -64 
Q 1472 -64 1139 134 
Q 806 333 668 809 
Q 531 1286 531 2170 
Q 531 3059 668 3536 
Q 806 4013 1136 4214 
Q 1466 4416 2080 4416 
Q 2522 4416 2787 4313 
Q 3053 4211 3193 3968 
Q 3334 3725 3373 3296 
L 2829 3296 
Q 2784 3571 2697 3712 
Q 2611 3853 2476 3901 
Q 2342 3949 2112 3949 
Q 1702 3949 1481 3795 
Q 1261 3642 1171 3267 
Q 1082 2893 1082 2182 
Q 1082 1472 1171 1094 
Q 1261 717 1475 560 
Q 1690 403 2093 403 
Q 2470 403 2636 537 
Q 2803 672 2867 1024 
L 3411 1024 
Q 3373 608 3225 371 
Q 3078 134 2803 35 
Q 2528 -64 2086 -64 
z
" transform="scale(0.015625)"/>
       <path id="BerkeleyMono-Regular-4c" d="M 742 4352 
L 1293 4352 
L 1293 512 
L 3405 512 
L 3405 6 
L 742 6 
L 742 4352 
z
" transform="scale(0.015625)"/>
      </defs>
      <use xlink:href="#BerkeleyMono-Regular-4e"/>
      <use xlink:href="#BerkeleyMono-Regular-61" transform="translate(59.999985 0)"/>
      <use xlink:href="#BerkeleyMono-Regular-74" transform="translate(119.999969 0)"/>
      <use xlink:href="#BerkeleyMono-Regular-75" transform="translate(179.999954 0)"/>
      <use xlink:href="#BerkeleyMono-Regular-72" transform="translate(239.999939 0)"/>
      <use xlink:href="#BerkeleyMono-Regular-61" transform="translate(299.999924 0)"/>
      <use xlink:href="#BerkeleyMono-Regular-6c" transform="translate(359.999908 0)"/>
      <use xlink:href="#BerkeleyMono-Regular-20" transform="translate(419.999893 0)"/>
      <use xlink:href="#BerkeleyMono-Regular-28" transform="translate(479.999878 0)"/>
      <use xlink:href="#BerkeleyMono-Regular-53" transform="translate(539.999863 0)"/>
      <use xlink:href="#BerkeleyMono-Regular-79" transform="translate(599.999847 0)"/>
      <use xlink:href="#BerkeleyMono-Regular-6e" transform="translate(659.999832 0)"/>
      <use xlink:href="#BerkeleyMono-Regular-74" transform="translate(719.999817 0)"/>
      <use xlink:href="#BerkeleyMono-Regular-68" transform="translate(779.999802 0)"/>
      <use xlink:href="#BerkeleyMono-Regular-65" transform="translate(839.999786 0)"/>
      <use xlink:href="#BerkeleyMono-Regular-74" transform="translate(899.999771 0)"/>
      <use xlink:href="#BerkeleyMono-Regular-69" transform="translate(959.999756 0)"/>
      <use xlink:href="#BerkeleyMono-Regular-63" transform="translate(1019.999741 0)"/>
      <use xlink:href="#BerkeleyMono-Regular-20" transform="translate(1079.999725 0)"/>
      <use xlink:href="#BerkeleyMono-Regular-49" transform="translate(1139.99971 0)"/>
      <use xlink:href="#BerkeleyMono-Regular-43" transform="translate(1199.999695 0)"/>
      <use xlink:href="#BerkeleyMono-Regular-4c" transform="translate(1259.99968 0)"/>
      <use xlink:href="#BerkeleyMono-Regular-29" transform="translate(1319.999664 0)"/>
     </g>
     <!--  -->
     <g transform="translate(843.753543 205.556269) scale(0.09 -0.09)"/>
    </g>
    <g id="patch_30">
     <path d="M 818.553543 229.30755 
L 836.553543 229.30755 
L 836.553543 223.00755 
L 818.553543 223.00755 
z
" style="fill: #121926; stroke: #000000; stroke-width: 2; stroke-linejoin: miter"/>
    </g>
    <g id="text_17">
     <!--  -->
     <g transform="translate(843.753543 218.542988) scale(0.09 -0.09)"/>
     <!-- Natural (Train ICL) -->
     <g transform="translate(843.753543 228.34005) scale(0.09 -0.09)">
      <defs>
       <path id="BerkeleyMono-Regular-54" d="M 1638 3846 
L 461 3846 
L 461 4352 
L 3373 4352 
L 3373 3846 
L 2189 3846 
L 2189 0 
L 1638 0 
L 1638 3846 
z
" transform="scale(0.015625)"/>
      </defs>
      <use xlink:href="#BerkeleyMono-Regular-4e"/>
      <use xlink:href="#BerkeleyMono-Regular-61" transform="translate(59.999985 0)"/>
      <use xlink:href="#BerkeleyMono-Regular-74" transform="translate(119.999969 0)"/>
      <use xlink:href="#BerkeleyMono-Regular-75" transform="translate(179.999954 0)"/>
      <use xlink:href="#BerkeleyMono-Regular-72" transform="translate(239.999939 0)"/>
      <use xlink:href="#BerkeleyMono-Regular-61" transform="translate(299.999924 0)"/>
      <use xlink:href="#BerkeleyMono-Regular-6c" transform="translate(359.999908 0)"/>
      <use xlink:href="#BerkeleyMono-Regular-20" transform="translate(419.999893 0)"/>
      <use xlink:href="#BerkeleyMono-Regular-28" transform="translate(479.999878 0)"/>
      <use xlink:href="#BerkeleyMono-Regular-54" transform="translate(539.999863 0)"/>
      <use xlink:href="#BerkeleyMono-Regular-72" transform="translate(599.999847 0)"/>
      <use xlink:href="#BerkeleyMono-Regular-61" transform="translate(659.999832 0)"/>
      <use xlink:href="#BerkeleyMono-Regular-69" transform="translate(719.999817 0)"/>
      <use xlink:href="#BerkeleyMono-Regular-6e" transform="translate(779.999802 0)"/>
      <use xlink:href="#BerkeleyMono-Regular-20" transform="translate(839.999786 0)"/>
      <use xlink:href="#BerkeleyMono-Regular-49" transform="translate(899.999771 0)"/>
      <use xlink:href="#BerkeleyMono-Regular-43" transform="translate(959.999756 0)"/>
      <use xlink:href="#BerkeleyMono-Regular-4c" transform="translate(1019.999741 0)"/>
      <use xlink:href="#BerkeleyMono-Regular-29" transform="translate(1079.999725 0)"/>
     </g>
     <!--  -->
     <g transform="translate(843.753543 238.137113) scale(0.09 -0.09)"/>
    </g>
    <g id="patch_31">
     <path d="M 818.553543 261.888394 
L 836.553543 261.888394 
L 836.553543 255.588394 
L 818.553543 255.588394 
z
" style="fill: #122214; stroke: #000000; stroke-width: 2; stroke-linejoin: miter"/>
    </g>
    <g id="text_18">
     <!--  -->
     <g transform="translate(843.753543 251.123832) scale(0.09 -0.09)"/>
     <!-- Natural (Ground ICL) -->
     <g transform="translate(843.753543 260.920894) scale(0.09 -0.09)">
      <defs>
       <path id="BerkeleyMono-Regular-47" d="M 2106 -64 
Q 1453 -64 1101 141 
Q 749 346 601 829 
Q 454 1312 454 2202 
Q 454 3072 598 3545 
Q 742 4019 1081 4217 
Q 1421 4416 2048 4416 
Q 2534 4416 2806 4317 
Q 3078 4218 3209 3987 
Q 3341 3757 3379 3334 
L 2848 3334 
Q 2803 3667 2636 3788 
Q 2470 3910 2054 3910 
Q 1638 3910 1414 3756 
Q 1190 3603 1097 3238 
Q 1005 2874 1005 2195 
Q 1005 1504 1104 1129 
Q 1203 755 1436 598 
Q 1670 442 2106 442 
Q 2349 442 2509 477 
Q 2669 512 2861 602 
L 2861 1830 
L 1997 1830 
L 1997 2336 
L 3373 2336 
L 3373 243 
Q 3014 64 2745 0 
Q 2477 -64 2106 -64 
z
" transform="scale(0.015625)"/>
      </defs>
      <use xlink:href="#BerkeleyMono-Regular-4e"/>
      <use xlink:href="#BerkeleyMono-Regular-61" transform="translate(59.999985 0)"/>
      <use xlink:href="#BerkeleyMono-Regular-74" transform="translate(119.999969 0)"/>
      <use xlink:href="#BerkeleyMono-Regular-75" transform="translate(179.999954 0)"/>
      <use xlink:href="#BerkeleyMono-Regular-72" transform="translate(239.999939 0)"/>
      <use xlink:href="#BerkeleyMono-Regular-61" transform="translate(299.999924 0)"/>
      <use xlink:href="#BerkeleyMono-Regular-6c" transform="translate(359.999908 0)"/>
      <use xlink:href="#BerkeleyMono-Regular-20" transform="translate(419.999893 0)"/>
      <use xlink:href="#BerkeleyMono-Regular-28" transform="translate(479.999878 0)"/>
      <use xlink:href="#BerkeleyMono-Regular-47" transform="translate(539.999863 0)"/>
      <use xlink:href="#BerkeleyMono-Regular-72" transform="translate(599.999847 0)"/>
      <use xlink:href="#BerkeleyMono-Regular-6f" transform="translate(659.999832 0)"/>
      <use xlink:href="#BerkeleyMono-Regular-75" transform="translate(719.999817 0)"/>
      <use xlink:href="#BerkeleyMono-Regular-6e" transform="translate(779.999802 0)"/>
      <use xlink:href="#BerkeleyMono-Regular-64" transform="translate(839.999786 0)"/>
      <use xlink:href="#BerkeleyMono-Regular-20" transform="translate(899.999771 0)"/>
      <use xlink:href="#BerkeleyMono-Regular-49" transform="translate(959.999756 0)"/>
      <use xlink:href="#BerkeleyMono-Regular-43" transform="translate(1019.999741 0)"/>
      <use xlink:href="#BerkeleyMono-Regular-4c" transform="translate(1079.999725 0)"/>
      <use xlink:href="#BerkeleyMono-Regular-29" transform="translate(1139.99971 0)"/>
     </g>
     <!--  -->
     <g transform="translate(843.753543 270.717957) scale(0.09 -0.09)"/>
    </g>
   </g>
  </g>
 </g>
 <defs>
  <clipPath id="p213d8e87f8">
   <rect x="89.088866" y="69.482457" width="890.564677" height="427.183087"/>
  </clipPath>
 </defs>
</svg>
